<mxGraphModel dx="0" dy="0" grid="1" gridSize="10" guides="1" tooltips="1" connect="1" arrows="1" fold="1" page="0" pageScale="1" background="none" math="0" shadow="0">
  <root>
    <mxCell id="0" />
    <mxCell id="1" parent="0" />
    <mxCell id="node30" parent="1" vertex="1" value="&lt;p style=&quot;margin:0px;margin-top:4px;text-align:center;&quot;&gt;&lt;b&gt;EntityCreator&lt;/b&gt;&lt;/p&gt;&lt;hr size=&quot;1&quot;/&gt;&lt;p style=&quot;margin:0 0 0 4px;line-height:1.6;&quot;&gt;+ EntityCreator(SystemManager, InputHandler): &lt;/p&gt;&lt;hr size=&quot;1&quot;/&gt;&lt;p style=&quot;margin:0 0 0 4px;line-height:1.6;&quot;&gt;- inputHandler: InputHandler&lt;br/&gt;- systemManager: SystemManager&lt;/p&gt;&lt;hr size=&quot;1&quot;/&gt;&lt;p style=&quot;margin:0 0 0 4px;line-height:1.6;&quot;&gt;+ registarReproducaoPlaylist(boolean, boolean): void&lt;br/&gt;+ registarReproducaoUnica(): void&lt;br/&gt;- mostrarControlosReproducao(PlayManager, String): void&lt;br/&gt;+ criarUtilizador(): void&lt;br/&gt;+ criarMusica(): void&lt;br/&gt;+ criarPlaylist(): void&lt;/p&gt;" style="verticalAlign=top;align=left;overflow=fill;fontSize=14;fontFamily=Helvetica;html=1;rounded=0;shadow=0;comic=0;labelBackgroundColor=none;strokeWidth=1;">
      <mxGeometry x="901" y="-13" width="397" height="259" as="geometry" />
    </mxCell>
    <mxCell id="node21" parent="1" vertex="1" value="&lt;p style=&quot;margin:0px;margin-top:4px;text-align:center;&quot;&gt;&lt;b&gt;EntityRemover&lt;/b&gt;&lt;/p&gt;&lt;hr size=&quot;1&quot;/&gt;&lt;p style=&quot;margin:0 0 0 4px;line-height:1.6;&quot;&gt;+ EntityRemover(SystemManager, InputHandler): &lt;/p&gt;&lt;hr size=&quot;1&quot;/&gt;&lt;p style=&quot;margin:0 0 0 4px;line-height:1.6;&quot;&gt;- inputHandler: InputHandler&lt;br/&gt;- systemManager: SystemManager&lt;/p&gt;&lt;hr size=&quot;1&quot;/&gt;&lt;p style=&quot;margin:0 0 0 4px;line-height:1.6;&quot;&gt;+ apagarUtilizador(): void&lt;br/&gt;+ apagarMusica(): void&lt;br/&gt;+ apagarPlaylist(): void&lt;/p&gt;" style="verticalAlign=top;align=left;overflow=fill;fontSize=14;fontFamily=Helvetica;html=1;rounded=0;shadow=0;comic=0;labelBackgroundColor=none;strokeWidth=1;">
      <mxGeometry x="1859" y="1173" width="343" height="187" as="geometry" />
    </mxCell>
    <mxCell id="node36" parent="1" vertex="1" value="&lt;p style=&quot;margin:0px;margin-top:4px;text-align:center;&quot;&gt;&lt;b&gt;EntityViewer&lt;/b&gt;&lt;/p&gt;&lt;hr size=&quot;1&quot;/&gt;&lt;p style=&quot;margin:0 0 0 4px;line-height:1.6;&quot;&gt;+ EntityViewer(SystemManager): &lt;/p&gt;&lt;hr size=&quot;1&quot;/&gt;&lt;p style=&quot;margin:0 0 0 4px;line-height:1.6;&quot;&gt;- systemManager: SystemManager&lt;br/&gt;- inputHandler: InputHandler&lt;/p&gt;&lt;hr size=&quot;1&quot;/&gt;&lt;p style=&quot;margin:0 0 0 4px;line-height:1.6;&quot;&gt;+ consultarReproducoesUtilizador(): void&lt;br/&gt;+ consultarUtilizador(): void&lt;br/&gt;+ consultarTodasMusicas(): void&lt;br/&gt;+ consultarPlaylist(): void&lt;br/&gt;+ consultarTodosUtilizadores(): void&lt;br/&gt;+ consultarMusica(): void&lt;br/&gt;+ consultarTodasPlaylist(): void&lt;/p&gt;" style="verticalAlign=top;align=left;overflow=fill;fontSize=14;fontFamily=Helvetica;html=1;rounded=0;shadow=0;comic=0;labelBackgroundColor=none;strokeWidth=1;">
      <mxGeometry x="132" y="599" width="288" height="283" as="geometry" />
    </mxCell>
    <mxCell id="node14" parent="1" vertex="1" value="&lt;p style=&quot;margin:0px;margin-top:4px;text-align:center;&quot;&gt;&lt;b&gt;Explicita&lt;/b&gt;&lt;/p&gt;&lt;hr size=&quot;1&quot;/&gt;&lt;p style=&quot;margin:0 0 0 4px;line-height:1.6;&quot;&gt;+ Explicita(String, String, String, String, List&amp;lt;String&amp;gt;, GeneroMusical, int): &lt;br/&gt;+ Explicita(Explicita): &lt;br/&gt;+ Explicita(): &lt;/p&gt;&lt;hr size=&quot;1&quot;/&gt;&lt;p style=&quot;margin:0 0 0 4px;line-height:1.6;&quot;&gt;- serialVersionUID: long&lt;/p&gt;&lt;hr size=&quot;1&quot;/&gt;&lt;p style=&quot;margin:0 0 0 4px;line-height:1.6;&quot;&gt;+ clone(): Explicita&lt;br/&gt;+ equals(Object): boolean&lt;br/&gt;+ toString(): String&lt;/p&gt;" style="verticalAlign=top;align=left;overflow=fill;fontSize=14;fontFamily=Helvetica;html=1;rounded=0;shadow=0;comic=0;labelBackgroundColor=none;strokeWidth=1;">
      <mxGeometry x="1823" y="3487" width="397" height="211" as="geometry" />
    </mxCell>
    <mxCell id="node55" parent="1" vertex="1" value="&lt;p style=&quot;margin:0px;margin-top:4px;text-align:center;&quot;&gt;&lt;b&gt;FavoriteMusics&lt;/b&gt;&lt;/p&gt;&lt;hr size=&quot;1&quot;/&gt;&lt;p style=&quot;margin:0 0 0 4px;line-height:1.6;&quot;&gt;+ FavoriteMusics(List&amp;lt;Musica&amp;gt;, Utilizador): &lt;/p&gt;&lt;hr size=&quot;1&quot;/&gt;&lt;p style=&quot;margin:0 0 0 4px;line-height:1.6;&quot;&gt;- validateAndGenerateFavorites(List&amp;lt;Musica&amp;gt;, Utilizador): List&amp;lt;Musica&amp;gt;&lt;/p&gt;" style="verticalAlign=top;align=left;overflow=fill;fontSize=14;fontFamily=Helvetica;html=1;rounded=0;shadow=0;comic=0;labelBackgroundColor=none;strokeWidth=1;">
      <mxGeometry x="1278" y="4720" width="487" height="96" as="geometry" />
    </mxCell>
    <mxCell id="node28" parent="1" vertex="1" value="&lt;p style=&quot;margin:0px;margin-top:4px;text-align:center;&quot;&gt;&lt;b&gt;FavoriteMusicsTest&lt;/b&gt;&lt;/p&gt;&lt;hr size=&quot;1&quot;/&gt;&lt;p style=&quot;margin:0 0 0 4px;line-height:1.6;&quot;&gt;+ FavoriteMusicsTest(): &lt;/p&gt;&lt;hr size=&quot;1&quot;/&gt;&lt;p style=&quot;margin:0 0 0 4px;line-height:1.6;&quot;&gt;- userManager: UserManager&lt;br/&gt;- musicasList: List&amp;lt;Musica&amp;gt;&lt;br/&gt;- userFree: Utilizador&lt;br/&gt;- playlistManager: PlaylistManager&lt;br/&gt;- userPremiumTop: Utilizador&lt;br/&gt;- musicManager: MusicManager&lt;br/&gt;- userPremiumBase: Utilizador&lt;/p&gt;&lt;hr size=&quot;1&quot;/&gt;&lt;p style=&quot;margin:0 0 0 4px;line-height:1.6;&quot;&gt;+ setUp(): void&lt;br/&gt;+ testCreateFavoriteMusicsForFreeUserThrowsException(): void&lt;br/&gt;+ testRemoveMusicFromFavoriteMusics(): void&lt;br/&gt;+ testFavoriteMusicsInitiallyEmpty(): void&lt;br/&gt;+ testNullMusicasList(): void&lt;br/&gt;+ testCreateFavoriteMusicsForPremiumTopUser(): void&lt;br/&gt;+ testAddMusicToFavoriteMusics(): void&lt;br/&gt;+ testCreateFavoriteMusicsForPremiumBaseUser(): void&lt;/p&gt;" style="verticalAlign=top;align=left;overflow=fill;fontSize=14;fontFamily=Helvetica;html=1;rounded=0;shadow=0;comic=0;labelBackgroundColor=none;strokeWidth=1;">
      <mxGeometry x="2177" y="3882" width="439" height="427" as="geometry" />
    </mxCell>
    <mxCell id="node0" parent="1" vertex="1" value="&lt;p style=&quot;margin:0px;margin-top:4px;text-align:center;&quot;&gt;&lt;b&gt;GeneratedMusics&lt;/b&gt;&lt;/p&gt;&lt;hr size=&quot;1&quot;/&gt;&lt;p style=&quot;margin:0 0 0 4px;line-height:1.6;&quot;&gt;+ GeneratedMusics(List&amp;lt;Musica&amp;gt;, Utilizador, int, boolean): &lt;/p&gt;&lt;hr size=&quot;1&quot;/&gt;&lt;p style=&quot;margin:0 0 0 4px;line-height:1.6;&quot;&gt;- generateFavoriteExplicitMusics(List&amp;lt;Musica&amp;gt;, Utilizador): List&amp;lt;Musica&amp;gt;&lt;br/&gt;+ updateGeneratedMusics(List&amp;lt;Musica&amp;gt;, Utilizador, int, boolean): void&lt;br/&gt;- determinePlaylist(List&amp;lt;Musica&amp;gt;, Utilizador, int, boolean): List&amp;lt;Musica&amp;gt;&lt;br/&gt;- generateFavoriteMusics(List&amp;lt;Musica&amp;gt;, Utilizador): List&amp;lt;Musica&amp;gt;&lt;br/&gt;- generateFavoriteMusicsWithDuration(List&amp;lt;Musica&amp;gt;, Utilizador, int): List&amp;lt;Musica&amp;gt;&lt;/p&gt;" style="verticalAlign=top;align=left;overflow=fill;fontSize=14;fontFamily=Helvetica;html=1;rounded=0;shadow=0;comic=0;labelBackgroundColor=none;strokeWidth=1;">
      <mxGeometry x="698" y="4641" width="512" height="185" as="geometry" />
    </mxCell>
    <mxCell id="node32" parent="1" vertex="1" value="&lt;p style=&quot;margin:0px;margin-top:4px;text-align:center;&quot;&gt;&lt;b&gt;GeneratedMusicsTest&lt;/b&gt;&lt;/p&gt;&lt;hr size=&quot;1&quot;/&gt;&lt;p style=&quot;margin:0 0 0 4px;line-height:1.6;&quot;&gt;+ GeneratedMusicsTest(): &lt;/p&gt;&lt;hr size=&quot;1&quot;/&gt;&lt;p style=&quot;margin:0 0 0 4px;line-height:1.6;&quot;&gt;- musicas: List&amp;lt;Musica&amp;gt;&lt;br/&gt;- musicManager: MusicManager&lt;br/&gt;- userManager: UserManager&lt;/p&gt;&lt;hr size=&quot;1&quot;/&gt;&lt;p style=&quot;margin:0 0 0 4px;line-height:1.6;&quot;&gt;~ testUpdateGeneratedMusicsForPremiumUser(): void&lt;br/&gt;~ testGeneratedMusicsForPremiumUser(): void&lt;br/&gt;~ setUp(): void&lt;br/&gt;~ testGeneratedMusicsForNonPremiumUser(): void&lt;/p&gt;" style="verticalAlign=top;align=left;overflow=fill;fontSize=14;fontFamily=Helvetica;html=1;rounded=0;shadow=0;comic=0;labelBackgroundColor=none;strokeWidth=1;">
      <mxGeometry x="2488" y="1412" width="375" height="235" as="geometry" />
    </mxCell>
    <mxCell id="node1" parent="1" vertex="1" value="&lt;p style=&quot;margin:0px;margin-top:4px;text-align:center;&quot;&gt;&lt;i&gt;&amp;lt;&amp;lt;enumeration&amp;gt;&amp;gt;&lt;/i&gt;&lt;br/&gt;&lt;b&gt;GeneroMusical&lt;/b&gt;&lt;/p&gt;&lt;hr size=&quot;1&quot;/&gt;&lt;p style=&quot;margin:0 0 0 4px;line-height:1.6;&quot;&gt;+ GeneroMusical(): &lt;/p&gt;&lt;hr size=&quot;1&quot;/&gt;&lt;p style=&quot;margin:0 0 0 4px;line-height:1.6;&quot;&gt;+ POP: &lt;br/&gt;+ ROCK: &lt;br/&gt;+ CLASSICA: &lt;br/&gt;+ OUTRO: &lt;br/&gt;+ FADO: &lt;br/&gt;+ REGGAE: &lt;br/&gt;+ JAZZ: &lt;br/&gt;+ ELETRONICA: &lt;br/&gt;+ HIPHOP: &lt;/p&gt;&lt;hr size=&quot;1&quot;/&gt;&lt;p style=&quot;margin:0 0 0 4px;line-height:1.6;&quot;&gt;+ values(): GeneroMusical[]&lt;br/&gt;+ valueOf(String): GeneroMusical&lt;/p&gt;" style="verticalAlign=top;align=left;overflow=fill;fontSize=14;fontFamily=Helvetica;html=1;rounded=0;shadow=0;comic=0;labelBackgroundColor=none;strokeWidth=1;">
      <mxGeometry x="2503" y="991" width="241" height="331" as="geometry" />
    </mxCell>
    <mxCell id="node20" parent="1" vertex="1" value="&lt;p style=&quot;margin:0px;margin-top:4px;text-align:center;&quot;&gt;&lt;b&gt;HowManyPublicPlaylistsExist&lt;/b&gt;&lt;/p&gt;&lt;hr size=&quot;1&quot;/&gt;&lt;p style=&quot;margin:0 0 0 4px;line-height:1.6;&quot;&gt;+ HowManyPublicPlaylistsExist(): &lt;/p&gt;&lt;hr size=&quot;1&quot;/&gt;&lt;p style=&quot;margin:0 0 0 4px;line-height:1.6;&quot;&gt;+ executeQuery(PlaylistManager): int&lt;/p&gt;" style="verticalAlign=top;align=left;overflow=fill;fontSize=14;fontFamily=Helvetica;html=1;rounded=0;shadow=0;comic=0;labelBackgroundColor=none;strokeWidth=1;">
      <mxGeometry x="1249" y="2261" width="277" height="96" as="geometry" />
    </mxCell>
    <mxCell id="node10" parent="1" vertex="1" value="&lt;p style=&quot;margin:0px;margin-top:4px;text-align:center;&quot;&gt;&lt;b&gt;HowManyPublicPlaylistsExistTest&lt;/b&gt;&lt;/p&gt;&lt;hr size=&quot;1&quot;/&gt;&lt;p style=&quot;margin:0 0 0 4px;line-height:1.6;&quot;&gt;+ HowManyPublicPlaylistsExistTest(): &lt;/p&gt;&lt;hr size=&quot;1&quot;/&gt;&lt;p style=&quot;margin:0 0 0 4px;line-height:1.6;&quot;&gt;- musicManager: MusicManager&lt;br/&gt;- playlistManager: PlaylistManager&lt;br/&gt;- userManager: UserManager&lt;/p&gt;&lt;hr size=&quot;1&quot;/&gt;&lt;p style=&quot;margin:0 0 0 4px;line-height:1.6;&quot;&gt;~ testExecuteQueryWithMixedPlaylists(): void&lt;br/&gt;~ testExecuteQueryWithAllPublicPlaylists(): void&lt;br/&gt;~ setUp(): void&lt;br/&gt;~ testExecuteQueryWithNoPublicPlaylists(): void&lt;/p&gt;" style="verticalAlign=top;align=left;overflow=fill;fontSize=14;fontFamily=Helvetica;html=1;rounded=0;shadow=0;comic=0;labelBackgroundColor=none;strokeWidth=1;">
      <mxGeometry x="1931" y="1775" width="335" height="235" as="geometry" />
    </mxCell>
    <mxCell id="node15" parent="1" vertex="1" value="&lt;p style=&quot;margin:0px;margin-top:4px;text-align:center;&quot;&gt;&lt;b&gt;InputHandler&lt;/b&gt;&lt;/p&gt;&lt;hr size=&quot;1&quot;/&gt;&lt;p style=&quot;margin:0 0 0 4px;line-height:1.6;&quot;&gt;+ InputHandler(Scanner): &lt;/p&gt;&lt;hr size=&quot;1&quot;/&gt;&lt;p style=&quot;margin:0 0 0 4px;line-height:1.6;&quot;&gt;- scanner: Scanner&lt;/p&gt;&lt;hr size=&quot;1&quot;/&gt;&lt;p style=&quot;margin:0 0 0 4px;line-height:1.6;&quot;&gt;+ readGeneroMusical(): GeneroMusical&lt;br/&gt;+ readInt(String): int&lt;br/&gt;+ displayMusicPlaying(Musica): void&lt;br/&gt;+ readLine(String): String&lt;br/&gt;+ readTipoMusica(): TipoMusica&lt;br/&gt;+ readMuitasMusicas(List&amp;lt;String&amp;gt;): List&amp;lt;String&amp;gt;&lt;br/&gt;+ readMuitasLinhas(): List&amp;lt;String&amp;gt;&lt;br/&gt;+ readBool(): boolean&lt;br/&gt;+ readPlanoSubscricao(): PlanoSubscricao&lt;/p&gt;" style="verticalAlign=top;align=left;overflow=fill;fontSize=14;fontFamily=Helvetica;html=1;rounded=0;shadow=0;comic=0;labelBackgroundColor=none;strokeWidth=1;">
      <mxGeometry x="941" y="433" width="337" height="307" as="geometry" />
    </mxCell>
    <mxCell id="node12" parent="1" vertex="1" value="&lt;p style=&quot;margin:0px;margin-top:4px;text-align:center;&quot;&gt;&lt;b&gt;LibrariesForLibs&lt;/b&gt;&lt;/p&gt;&lt;hr size=&quot;1&quot;/&gt;&lt;p style=&quot;margin:0 0 0 4px;line-height:1.6;&quot;&gt;+ LibrariesForLibs(DefaultVersionCatalog, ProviderFactory, ObjectFactory, ImmutableAttributesFactory, CapabilityNotationParser): &lt;/p&gt;&lt;hr size=&quot;1&quot;/&gt;&lt;p style=&quot;margin:0 0 0 4px;line-height:1.6;&quot;&gt;- vaccForVersionAccessors: VersionAccessors&lt;br/&gt;- baccForBundleAccessors: BundleAccessors&lt;br/&gt;- paccForPluginAccessors: PluginAccessors&lt;br/&gt;- owner: AbstractExternalDependencyFactory&lt;br/&gt;- laccForJunitLibraryAccessors: JunitLibraryAccessors&lt;/p&gt;&lt;hr size=&quot;1&quot;/&gt;&lt;p style=&quot;margin:0 0 0 4px;line-height:1.6;&quot;&gt;+ getGuava(): Provider&amp;lt;MinimalExternalModuleDependency&amp;gt;&lt;br/&gt;+ getJunit(): JunitLibraryAccessors&lt;br/&gt;+ getPlugins(): PluginAccessors&lt;br/&gt;+ getVersions(): VersionAccessors&lt;br/&gt;+ getBundles(): BundleAccessors&lt;/p&gt;" style="verticalAlign=top;align=left;overflow=fill;fontSize=14;fontFamily=Helvetica;html=1;rounded=0;shadow=0;comic=0;labelBackgroundColor=none;strokeWidth=1;">
      <mxGeometry x="2548" y="1871" width="416" height="307" as="geometry" />
    </mxCell>
    <mxCell id="node42" parent="1" vertex="1" value="&lt;p style=&quot;margin:0px;margin-top:4px;text-align:center;&quot;&gt;&lt;b&gt;LibrariesForLibsInPluginsBlock&lt;/b&gt;&lt;/p&gt;&lt;hr size=&quot;1&quot;/&gt;&lt;p style=&quot;margin:0 0 0 4px;line-height:1.6;&quot;&gt;+ LibrariesForLibsInPluginsBlock(DefaultVersionCatalog, ProviderFactory, ObjectFactory, ImmutableAttributesFactory, CapabilityNotationParser): &lt;/p&gt;&lt;hr size=&quot;1&quot;/&gt;&lt;p style=&quot;margin:0 0 0 4px;line-height:1.6;&quot;&gt;- laccForJunitLibraryAccessors: JunitLibraryAccessors&lt;br/&gt;- baccForBundleAccessors: BundleAccessors&lt;br/&gt;- paccForPluginAccessors: PluginAccessors&lt;br/&gt;- vaccForVersionAccessors: VersionAccessors&lt;br/&gt;- owner: AbstractExternalDependencyFactory&lt;/p&gt;&lt;hr size=&quot;1&quot;/&gt;&lt;p style=&quot;margin:0 0 0 4px;line-height:1.6;&quot;&gt;+ getJunit(): JunitLibraryAccessors&lt;br/&gt;+ getVersions(): VersionAccessors&lt;br/&gt;+ getBundles(): BundleAccessors&lt;br/&gt;+ getPlugins(): PluginAccessors&lt;br/&gt;+ getGuava(): Provider&amp;lt;MinimalExternalModuleDependency&amp;gt;&lt;/p&gt;" style="verticalAlign=top;align=left;overflow=fill;fontSize=14;fontFamily=Helvetica;html=1;rounded=0;shadow=0;comic=0;labelBackgroundColor=none;strokeWidth=1;">
      <mxGeometry x="956" y="2746" width="416" height="307" as="geometry" />
    </mxCell>
    <mxCell id="node18" parent="1" vertex="1" value="&lt;p style=&quot;margin:0px;margin-top:4px;text-align:center;&quot;&gt;&lt;b&gt;Main&lt;/b&gt;&lt;/p&gt;&lt;hr size=&quot;1&quot;/&gt;&lt;p style=&quot;margin:0 0 0 4px;line-height:1.6;&quot;&gt;+ Main(): &lt;/p&gt;&lt;hr size=&quot;1&quot;/&gt;&lt;p style=&quot;margin:0 0 0 4px;line-height:1.6;&quot;&gt;+ main(String[]): void&lt;/p&gt;" style="verticalAlign=top;align=left;overflow=fill;fontSize=14;fontFamily=Helvetica;html=1;rounded=0;shadow=0;comic=0;labelBackgroundColor=none;strokeWidth=1;">
      <mxGeometry x="2263" y="1321" width="164" height="96" as="geometry" />
    </mxCell>
    <mxCell id="node37" parent="1" vertex="1" value="&lt;p style=&quot;margin:0px;margin-top:4px;text-align:center;&quot;&gt;&lt;b&gt;Menu&lt;/b&gt;&lt;/p&gt;&lt;hr size=&quot;1&quot;/&gt;&lt;p style=&quot;margin:0 0 0 4px;line-height:1.6;&quot;&gt;+ Menu(): &lt;/p&gt;&lt;hr size=&quot;1&quot;/&gt;&lt;p style=&quot;margin:0 0 0 4px;line-height:1.6;&quot;&gt;- inputHandler: InputHandler&lt;br/&gt;- entityViewer: EntityViewer&lt;br/&gt;- entityRemover: EntityRemover&lt;br/&gt;- systemManager: SystemManager&lt;br/&gt;- entityCreator: EntityCreator&lt;/p&gt;&lt;hr size=&quot;1&quot;/&gt;&lt;p style=&quot;margin:0 0 0 4px;line-height:1.6;&quot;&gt;+ start(): void&lt;br/&gt;- submenuInserir(): void&lt;br/&gt;- submenuReproducao(): void&lt;br/&gt;- gerarPlaylist(): void&lt;br/&gt;- carregarEstado(): void&lt;br/&gt;- estatisticas(): void&lt;br/&gt;- submenuConsultar(): void&lt;br/&gt;- submenuApagar(): void&lt;br/&gt;- printMainMenu(): void&lt;br/&gt;- guardarEstado(): void&lt;/p&gt;" style="verticalAlign=top;align=left;overflow=fill;fontSize=14;fontFamily=Helvetica;html=1;rounded=0;shadow=0;comic=0;labelBackgroundColor=none;strokeWidth=1;">
      <mxGeometry x="1512" y="2677" width="253" height="427" as="geometry" />
    </mxCell>
    <mxCell id="node43" parent="1" vertex="1" value="&lt;p style=&quot;margin:0px;margin-top:4px;text-align:center;&quot;&gt;&lt;b&gt;Multimedia&lt;/b&gt;&lt;/p&gt;&lt;hr size=&quot;1&quot;/&gt;&lt;p style=&quot;margin:0 0 0 4px;line-height:1.6;&quot;&gt;+ Multimedia(): &lt;br/&gt;+ Multimedia(String, String, String, String, List&amp;lt;String&amp;gt;, GeneroMusical, int, String): &lt;br/&gt;+ Multimedia(Multimedia): &lt;/p&gt;&lt;hr size=&quot;1&quot;/&gt;&lt;p style=&quot;margin:0 0 0 4px;line-height:1.6;&quot;&gt;- serialVersionUID: long&lt;br/&gt;- video: String&lt;/p&gt;&lt;hr size=&quot;1&quot;/&gt;&lt;p style=&quot;margin:0 0 0 4px;line-height:1.6;&quot;&gt;+ clone(): Multimedia&lt;br/&gt;+ getVideo(): String&lt;br/&gt;+ equals(Object): boolean&lt;br/&gt;+ setVideo(String): void&lt;br/&gt;+ toString(): String&lt;/p&gt;" style="verticalAlign=top;align=left;overflow=fill;fontSize=14;fontFamily=Helvetica;html=1;rounded=0;shadow=0;comic=0;labelBackgroundColor=none;strokeWidth=1;">
      <mxGeometry x="2436" y="3537" width="399" height="283" as="geometry" />
    </mxCell>
    <mxCell id="node50" parent="1" vertex="1" value="&lt;p style=&quot;margin:0px;margin-top:4px;text-align:center;&quot;&gt;&lt;b&gt;MusicManager&lt;/b&gt;&lt;/p&gt;&lt;hr size=&quot;1&quot;/&gt;&lt;p style=&quot;margin:0 0 0 4px;line-height:1.6;&quot;&gt;+ MusicManager(Map&amp;lt;String, Musica&amp;gt;): &lt;br/&gt;+ MusicManager(): &lt;/p&gt;&lt;hr size=&quot;1&quot;/&gt;&lt;p style=&quot;margin:0 0 0 4px;line-height:1.6;&quot;&gt;- musicas: Map&amp;lt;String, Musica&amp;gt;&lt;/p&gt;&lt;hr size=&quot;1&quot;/&gt;&lt;p style=&quot;margin:0 0 0 4px;line-height:1.6;&quot;&gt;+ getAllMusics(): List&amp;lt;Musica&amp;gt;&lt;br/&gt;+ insertMusica(Musica): void&lt;br/&gt;+ load(String): void&lt;br/&gt;+ removeMusic(String): void&lt;br/&gt;+ save(String): void&lt;br/&gt;+ clone(): MusicManager&lt;br/&gt;+ handleReproduction(Musica): void&lt;br/&gt;+ createMusica(String, String, String, String, List&amp;lt;String&amp;gt;, GeneroMusical, int, String, TipoMusica): Musica&lt;br/&gt;+ getMusica(String): Musica&lt;br/&gt;+ existsMusic(String): boolean&lt;br/&gt;+ updateMusica(Musica): void&lt;/p&gt;" style="verticalAlign=top;align=left;overflow=fill;fontSize=14;fontFamily=Helvetica;html=1;rounded=0;shadow=0;comic=0;labelBackgroundColor=none;strokeWidth=1;">
      <mxGeometry x="1723" y="4870" width="428" height="379" as="geometry" />
    </mxCell>
    <mxCell id="node24" parent="1" vertex="1" value="&lt;p style=&quot;margin:0px;margin-top:4px;text-align:center;&quot;&gt;&lt;b&gt;MusicManagerTest&lt;/b&gt;&lt;/p&gt;&lt;hr size=&quot;1&quot;/&gt;&lt;p style=&quot;margin:0 0 0 4px;line-height:1.6;&quot;&gt;+ MusicManagerTest(): &lt;/p&gt;&lt;hr size=&quot;1&quot;/&gt;&lt;p style=&quot;margin:0 0 0 4px;line-height:1.6;&quot;&gt;- musicManager: MusicManager&lt;br/&gt;- musica1: Musica&lt;br/&gt;- musica2: Musica&lt;/p&gt;&lt;hr size=&quot;1&quot;/&gt;&lt;p style=&quot;margin:0 0 0 4px;line-height:1.6;&quot;&gt;+ testHandleReproductionIncrementsCount(): void&lt;br/&gt;+ testInsertDuplicateThrowsException(): void&lt;br/&gt;+ testGetAllMusicsReturnsCorrectList(): void&lt;br/&gt;+ testGetMusicaSuccessfully(): void&lt;br/&gt;+ testInsertAndExistsMusic(): void&lt;br/&gt;+ testGetMusicaNotFoundThrowsException(): void&lt;br/&gt;+ testCloneCreatesDeepCopy(): void&lt;br/&gt;+ setUp(): void&lt;br/&gt;+ testCreateMusicaNormal(): void&lt;br/&gt;+ testRemoveMusicNotFoundThrowsException(): void&lt;br/&gt;+ testRemoveMusicSuccessfully(): void&lt;br/&gt;+ testSaveAndLoad(): void&lt;/p&gt;" style="verticalAlign=top;align=left;overflow=fill;fontSize=14;fontFamily=Helvetica;html=1;rounded=0;shadow=0;comic=0;labelBackgroundColor=none;strokeWidth=1;">
      <mxGeometry x="1912" y="2793" width="372" height="427" as="geometry" />
    </mxCell>
    <mxCell id="node2" parent="1" vertex="1" value="&lt;p style=&quot;margin:0px;margin-top:4px;text-align:center;&quot;&gt;&lt;b&gt;MusicNotFoundException&lt;/b&gt;&lt;/p&gt;&lt;hr size=&quot;1&quot;/&gt;&lt;p style=&quot;margin:0 0 0 4px;line-height:1.6;&quot;&gt;+ MusicNotFoundException(String): &lt;/p&gt;" style="verticalAlign=top;align=left;overflow=fill;fontSize=14;fontFamily=Helvetica;html=1;rounded=0;shadow=0;comic=0;labelBackgroundColor=none;strokeWidth=1;">
      <mxGeometry x="2443" y="1713" width="261" height="68" as="geometry" />
    </mxCell>
    <mxCell id="node51" parent="1" vertex="1" value="&lt;p style=&quot;margin:0px;margin-top:4px;text-align:center;&quot;&gt;&lt;b&gt;Musica&lt;/b&gt;&lt;/p&gt;&lt;hr size=&quot;1&quot;/&gt;&lt;p style=&quot;margin:0 0 0 4px;line-height:1.6;&quot;&gt;+ Musica(): &lt;br/&gt;+ Musica(Musica): &lt;br/&gt;+ Musica(String, String, String, String, List&amp;lt;String&amp;gt;, GeneroMusical, int): &lt;/p&gt;&lt;hr size=&quot;1&quot;/&gt;&lt;p style=&quot;margin:0 0 0 4px;line-height:1.6;&quot;&gt;- nome: String&lt;br/&gt;- nomeEditora: String&lt;br/&gt;- generoMusical: GeneroMusical&lt;br/&gt;- duracaoSegundos: int&lt;br/&gt;- interprete: String&lt;br/&gt;- serialVersionUID: long&lt;br/&gt;- musica: List&amp;lt;String&amp;gt;&lt;br/&gt;- numeroReproducoes: int&lt;br/&gt;- letra: String&lt;/p&gt;&lt;hr size=&quot;1&quot;/&gt;&lt;p style=&quot;margin:0 0 0 4px;line-height:1.6;&quot;&gt;+ reproduzir(): void&lt;br/&gt;+ setNomeEditora(String): void&lt;br/&gt;+ setMusica(List&amp;lt;String&amp;gt;): void&lt;br/&gt;+ getInterprete(): String&lt;br/&gt;+ setGeneroMusical(String): void&lt;br/&gt;+ equals(Object): boolean&lt;br/&gt;+ toString(): String&lt;br/&gt;+ getNome(): String&lt;br/&gt;+ setNome(String): void&lt;br/&gt;+ getLetra(): String&lt;br/&gt;+ getDuracaoSegundos(): int&lt;br/&gt;+ getNomeEditora(): String&lt;br/&gt;+ getNumeroReproducoes(): int&lt;br/&gt;+ getGenero(): GeneroMusical&lt;br/&gt;+ getGeneroMusical(): GeneroMusical&lt;br/&gt;+ getMusica(): List&amp;lt;String&amp;gt;&lt;br/&gt;+ setDuracaoSegundos(int): void&lt;br/&gt;+ clone(): Musica&lt;br/&gt;+ setInterprete(String): void&lt;br/&gt;+ setLetra(String): void&lt;br/&gt;+ setNumeroReproducoes(int): void&lt;/p&gt;" style="verticalAlign=top;align=left;overflow=fill;fontSize=14;fontFamily=Helvetica;html=1;rounded=0;shadow=0;comic=0;labelBackgroundColor=none;strokeWidth=1;">
      <mxGeometry x="2546" y="2393" width="408" height="835" as="geometry" />
    </mxCell>
    <mxCell id="node7" parent="1" vertex="1" value="&lt;p style=&quot;margin:0px;margin-top:4px;text-align:center;&quot;&gt;&lt;i&gt;&amp;lt;&amp;lt;interface&amp;gt;&amp;gt;&lt;/i&gt;&lt;br/&gt;&lt;b&gt;MusicaInterface&lt;/b&gt;&lt;/p&gt;&lt;hr size=&quot;1&quot;/&gt;&lt;p style=&quot;margin:0 0 0 4px;line-height:1.6;&quot;&gt;+ getNomeEditora(): String&lt;br/&gt;+ getDuracaoSegundos(): int&lt;br/&gt;+ setNomeEditora(String): void&lt;br/&gt;+ reproduzir(): void&lt;br/&gt;+ setNome(String): void&lt;br/&gt;+ toString(): String&lt;br/&gt;+ getGeneroMusical(): GeneroMusical&lt;br/&gt;+ getGenero(): GeneroMusical&lt;br/&gt;+ getMusica(): List&amp;lt;String&amp;gt;&lt;br/&gt;+ setGeneroMusical(String): void&lt;br/&gt;+ setLetra(String): void&lt;br/&gt;+ setNumeroReproducoes(int): void&lt;br/&gt;+ getInterprete(): String&lt;br/&gt;+ getNumeroReproducoes(): int&lt;br/&gt;+ equals(Object): boolean&lt;br/&gt;+ getNome(): String&lt;br/&gt;+ setInterprete(String): void&lt;br/&gt;+ setMusica(List&amp;lt;String&amp;gt;): void&lt;br/&gt;+ setDuracaoSegundos(int): void&lt;br/&gt;+ getLetra(): String&lt;br/&gt;+ clone(): MusicaInterface&lt;/p&gt;" style="verticalAlign=top;align=left;overflow=fill;fontSize=14;fontFamily=Helvetica;html=1;rounded=0;shadow=0;comic=0;labelBackgroundColor=none;strokeWidth=1;">
      <mxGeometry x="2214" y="2071" width="271" height="543" as="geometry" />
    </mxCell>
    <mxCell id="node4" parent="1" vertex="1" value="&lt;p style=&quot;margin:0px;margin-top:4px;text-align:center;&quot;&gt;&lt;b&gt;MusicaTest&lt;/b&gt;&lt;/p&gt;&lt;hr size=&quot;1&quot;/&gt;&lt;p style=&quot;margin:0 0 0 4px;line-height:1.6;&quot;&gt;+ MusicaTest(): &lt;/p&gt;&lt;hr size=&quot;1&quot;/&gt;&lt;p style=&quot;margin:0 0 0 4px;line-height:1.6;&quot;&gt;- musica1: Musica&lt;br/&gt;- musica2: Musica&lt;/p&gt;&lt;hr size=&quot;1&quot;/&gt;&lt;p style=&quot;margin:0 0 0 4px;line-height:1.6;&quot;&gt;+ testConstructorAndGetters(): void&lt;br/&gt;+ setUp(): void&lt;br/&gt;+ testEqualsTrueAndFalse(): void&lt;br/&gt;+ testToStringIncludesData(): void&lt;br/&gt;+ testCloneCreatesDeepCopy(): void&lt;br/&gt;+ testCopyConstructor(): void&lt;br/&gt;+ testSetGeneroMusicalComValorInvalido(): void&lt;br/&gt;+ testReproduzir(): void&lt;br/&gt;+ testSetters(): void&lt;br/&gt;+ testDefaultConstructor(): void&lt;/p&gt;" style="verticalAlign=top;align=left;overflow=fill;fontSize=14;fontFamily=Helvetica;html=1;rounded=0;shadow=0;comic=0;labelBackgroundColor=none;strokeWidth=1;">
      <mxGeometry x="2237" y="4399" width="335" height="355" as="geometry" />
    </mxCell>
    <mxCell id="node22" parent="1" vertex="1" value="&lt;p style=&quot;margin:0px;margin-top:4px;text-align:center;&quot;&gt;&lt;i&gt;&amp;lt;&amp;lt;enumeration&amp;gt;&amp;gt;&lt;/i&gt;&lt;br/&gt;&lt;b&gt;PlanoSubscricao&lt;/b&gt;&lt;/p&gt;&lt;hr size=&quot;1&quot;/&gt;&lt;p style=&quot;margin:0 0 0 4px;line-height:1.6;&quot;&gt;+ PlanoSubscricao(): &lt;/p&gt;&lt;hr size=&quot;1&quot;/&gt;&lt;p style=&quot;margin:0 0 0 4px;line-height:1.6;&quot;&gt;+ PremiumBase: &lt;br/&gt;+ PremiumTop: &lt;br/&gt;+ FREE: &lt;/p&gt;&lt;hr size=&quot;1&quot;/&gt;&lt;p style=&quot;margin:0 0 0 4px;line-height:1.6;&quot;&gt;+ calcularPontos(double): double&lt;br/&gt;+ valueOf(String): PlanoSubscricao&lt;br/&gt;+ values(): PlanoSubscricao[]&lt;/p&gt;" style="verticalAlign=top;align=left;overflow=fill;fontSize=14;fontFamily=Helvetica;html=1;rounded=0;shadow=0;comic=0;labelBackgroundColor=none;strokeWidth=1;">
      <mxGeometry x="1531" y="1937" width="249" height="211" as="geometry" />
    </mxCell>
    <mxCell id="node52" parent="1" vertex="1" value="&lt;p style=&quot;margin:0px;margin-top:4px;text-align:center;&quot;&gt;&lt;b&gt;PlanoSubscricaoTest&lt;/b&gt;&lt;/p&gt;&lt;hr size=&quot;1&quot;/&gt;&lt;p style=&quot;margin:0 0 0 4px;line-height:1.6;&quot;&gt;+ PlanoSubscricaoTest(): &lt;/p&gt;&lt;hr size=&quot;1&quot;/&gt;&lt;p style=&quot;margin:0 0 0 4px;line-height:1.6;&quot;&gt;+ testFreePlanCalculaPontos(): void&lt;br/&gt;+ testValoresZero(): void&lt;br/&gt;+ testPremiumBaseCalculaPontos(): void&lt;br/&gt;+ testValoresNegativos(): void&lt;br/&gt;+ testPremiumTopCalculaPontos(): void&lt;/p&gt;" style="verticalAlign=top;align=left;overflow=fill;fontSize=14;fontFamily=Helvetica;html=1;rounded=0;shadow=0;comic=0;labelBackgroundColor=none;strokeWidth=1;">
      <mxGeometry x="512" y="921" width="285" height="185" as="geometry" />
    </mxCell>
    <mxCell id="node9" parent="1" vertex="1" value="&lt;p style=&quot;margin:0px;margin-top:4px;text-align:center;&quot;&gt;&lt;b&gt;PlayManager&lt;/b&gt;&lt;/p&gt;&lt;hr size=&quot;1&quot;/&gt;&lt;p style=&quot;margin:0 0 0 4px;line-height:1.6;&quot;&gt;+ PlayManager(ReproductionManager, PlaylistManager, MusicManager, UserManager): &lt;/p&gt;&lt;hr size=&quot;1&quot;/&gt;&lt;p style=&quot;margin:0 0 0 4px;line-height:1.6;&quot;&gt;- userManager: UserManager&lt;br/&gt;- currentIndex: int&lt;br/&gt;- reproductionManager: ReproductionManager&lt;br/&gt;- isPlaying: boolean&lt;br/&gt;- musicManager: MusicManager&lt;br/&gt;- playlistManager: PlaylistManager&lt;br/&gt;- needsReproduction: boolean&lt;/p&gt;&lt;hr size=&quot;1&quot;/&gt;&lt;p style=&quot;margin:0 0 0 4px;line-height:1.6;&quot;&gt;- previousSong(List&amp;lt;Musica&amp;gt;): void&lt;br/&gt;+ processarComando(int, List&amp;lt;Musica&amp;gt;, String): void&lt;br/&gt;+ getMusicaAtual(): Musica&lt;br/&gt;- toggleFavorite(Musica, String): void&lt;br/&gt;- nextSong(List&amp;lt;Musica&amp;gt;): void&lt;br/&gt;+ needsReproduction(): boolean&lt;br/&gt;+ isPlaying(): boolean&lt;br/&gt;- addToFavorites(Musica, String): void&lt;br/&gt;+ reproduzirMusicaAtual(List&amp;lt;Musica&amp;gt;, String): Musica&lt;br/&gt;- removeFromFavorites(Musica, String): void&lt;/p&gt;" style="verticalAlign=top;align=left;overflow=fill;fontSize=14;fontFamily=Helvetica;html=1;rounded=0;shadow=0;comic=0;labelBackgroundColor=none;strokeWidth=1;">
      <mxGeometry x="1372" y="268" width="458" height="475" as="geometry" />
    </mxCell>
    <mxCell id="node6" parent="1" vertex="1" value="&lt;p style=&quot;margin:0px;margin-top:4px;text-align:center;&quot;&gt;&lt;b&gt;PlayManagerTest&lt;/b&gt;&lt;/p&gt;&lt;hr size=&quot;1&quot;/&gt;&lt;p style=&quot;margin:0 0 0 4px;line-height:1.6;&quot;&gt;+ PlayManagerTest(): &lt;/p&gt;&lt;hr size=&quot;1&quot;/&gt;&lt;p style=&quot;margin:0 0 0 4px;line-height:1.6;&quot;&gt;- playlistManager: PlaylistManager&lt;br/&gt;- musicManager: MusicManager&lt;br/&gt;- playManager: PlayManager&lt;br/&gt;- reproductionManager: ReproductionManager&lt;br/&gt;- userManager: UserManager&lt;br/&gt;- user: Utilizador&lt;br/&gt;- musicas: List&amp;lt;Musica&amp;gt;&lt;/p&gt;&lt;hr size=&quot;1&quot;/&gt;&lt;p style=&quot;margin:0 0 0 4px;line-height:1.6;&quot;&gt;+ testIsPlayingFalseAfterStop(): void&lt;br/&gt;+ testToggleFavoriteAddsAndRemoves(): void&lt;br/&gt;+ testInvalidOptionDoesNotCrash(): void&lt;br/&gt;+ testProcessarComandoNextSong(): void&lt;br/&gt;+ setUp(): void&lt;br/&gt;+ testGetMusicaAtual(): void&lt;br/&gt;+ testProcessarComandoPreviousSong(): void&lt;br/&gt;+ testReproduzirMusicaAtual(): void&lt;br/&gt;+ testNeedsReproduction(): void&lt;/p&gt;" style="verticalAlign=top;align=left;overflow=fill;fontSize=14;fontFamily=Helvetica;html=1;rounded=0;shadow=0;comic=0;labelBackgroundColor=none;strokeWidth=1;">
      <mxGeometry x="1825" y="2209" width="327" height="451" as="geometry" />
    </mxCell>
    <mxCell id="node17" parent="1" vertex="1" value="&lt;p style=&quot;margin:0px;margin-top:4px;text-align:center;&quot;&gt;&lt;b&gt;Playlist&lt;/b&gt;&lt;/p&gt;&lt;hr size=&quot;1&quot;/&gt;&lt;p style=&quot;margin:0 0 0 4px;line-height:1.6;&quot;&gt;+ Playlist(Playlist): &lt;br/&gt;+ Playlist(String, String, List&amp;lt;Musica&amp;gt;, boolean): &lt;br/&gt;+ Playlist(): &lt;/p&gt;&lt;hr size=&quot;1&quot;/&gt;&lt;p style=&quot;margin:0 0 0 4px;line-height:1.6;&quot;&gt;- serialVersionUID: long&lt;br/&gt;- nome: String&lt;br/&gt;- musicas: List&amp;lt;Musica&amp;gt;&lt;br/&gt;- email: String&lt;br/&gt;- numeroReproducoes: int&lt;br/&gt;- publica: boolean&lt;/p&gt;&lt;hr size=&quot;1&quot;/&gt;&lt;p style=&quot;margin:0 0 0 4px;line-height:1.6;&quot;&gt;+ setPublica(boolean): void&lt;br/&gt;+ equals(Object): boolean&lt;br/&gt;+ reproduzir(): void&lt;br/&gt;+ getNome(): String&lt;br/&gt;+ setMusicas(List&amp;lt;Musica&amp;gt;): void&lt;br/&gt;+ setEmail(String): void&lt;br/&gt;+ isPublica(): boolean&lt;br/&gt;+ removeMusica(String): void&lt;br/&gt;+ getMusicas(): List&amp;lt;Musica&amp;gt;&lt;br/&gt;+ addMusica(Musica): void&lt;br/&gt;+ toString(): String&lt;br/&gt;+ getEmail(): String&lt;br/&gt;+ setNome(String): void&lt;br/&gt;+ getNumeroReproducoes(): int&lt;br/&gt;+ clone(): Playlist&lt;br/&gt;+ setNumeroReproducoes(int): void&lt;/p&gt;" style="verticalAlign=top;align=left;overflow=fill;fontSize=14;fontFamily=Helvetica;html=1;rounded=0;shadow=0;comic=0;labelBackgroundColor=none;strokeWidth=1;">
      <mxGeometry x="281" y="4309" width="337" height="643" as="geometry" />
    </mxCell>
    <mxCell id="node45" parent="1" vertex="1" value="&lt;p style=&quot;margin:0px;margin-top:4px;text-align:center;&quot;&gt;&lt;i&gt;&amp;lt;&amp;lt;interface&amp;gt;&amp;gt;&lt;/i&gt;&lt;br/&gt;&lt;b&gt;PlaylistInterface&lt;/b&gt;&lt;/p&gt;&lt;hr size=&quot;1&quot;/&gt;&lt;p style=&quot;margin:0 0 0 4px;line-height:1.6;&quot;&gt;+ getNumeroReproducoes(): int&lt;br/&gt;+ setEmail(String): void&lt;br/&gt;+ isPublica(): boolean&lt;br/&gt;+ removeMusica(String): void&lt;br/&gt;+ setNumeroReproducoes(int): void&lt;br/&gt;+ addMusica(Musica): void&lt;br/&gt;+ setPublica(boolean): void&lt;br/&gt;+ getEmail(): String&lt;br/&gt;+ reproduzir(): void&lt;br/&gt;+ getMusicas(): List&amp;lt;Musica&amp;gt;&lt;br/&gt;+ setNome(String): void&lt;br/&gt;+ setMusicas(List&amp;lt;Musica&amp;gt;): void&lt;br/&gt;+ toString(): String&lt;br/&gt;+ getNome(): String&lt;/p&gt;" style="verticalAlign=top;align=left;overflow=fill;fontSize=14;fontFamily=Helvetica;html=1;rounded=0;shadow=0;comic=0;labelBackgroundColor=none;strokeWidth=1;">
      <mxGeometry x="359" y="3864" width="257" height="375" as="geometry" />
    </mxCell>
    <mxCell id="node58" parent="1" vertex="1" value="&lt;p style=&quot;margin:0px;margin-top:4px;text-align:center;&quot;&gt;&lt;b&gt;PlaylistManager&lt;/b&gt;&lt;/p&gt;&lt;hr size=&quot;1&quot;/&gt;&lt;p style=&quot;margin:0 0 0 4px;line-height:1.6;&quot;&gt;+ PlaylistManager(): &lt;/p&gt;&lt;hr size=&quot;1&quot;/&gt;&lt;p style=&quot;margin:0 0 0 4px;line-height:1.6;&quot;&gt;- playlists: Map&amp;lt;String, Map&amp;lt;String, Playlist&amp;gt;&amp;gt;&lt;/p&gt;&lt;hr size=&quot;1&quot;/&gt;&lt;p style=&quot;margin:0 0 0 4px;line-height:1.6;&quot;&gt;+ incrementNReproducoes(String, String): void&lt;br/&gt;+ createFavoriteMusicsPlaylist(Utilizador, MusicManager): void&lt;br/&gt;+ save(String): void&lt;br/&gt;+ load(String): void&lt;br/&gt;+ getAllPlaylistUser(String): Map&amp;lt;String, Playlist&amp;gt;&lt;br/&gt;+ isMusicFavorite(String, String): boolean&lt;br/&gt;+ getAllPlaylists(): List&amp;lt;Playlist&amp;gt;&lt;br/&gt;+ getPlaylists(): Map&amp;lt;String, Map&amp;lt;String, Playlist&amp;gt;&amp;gt;&lt;br/&gt;+ createPlaylist(UserManager, MusicManager, String, List&amp;lt;String&amp;gt;, String, boolean): Playlist&lt;br/&gt;+ getPlaylist(String, String): Playlist&lt;br/&gt;+ removeFavoriteMusic(String, String): void&lt;br/&gt;+ removeMusicFromAllPlaylists(String): void&lt;br/&gt;+ updateGeneratedMusicsPlaylist(Utilizador, List&amp;lt;Musica&amp;gt;, int, boolean): void&lt;br/&gt;+ addFavoriteMusic(String, String, MusicManager): void&lt;br/&gt;+ existsPlaylist(String, String): boolean&lt;br/&gt;+ getFavoriteMusics(String): List&amp;lt;Musica&amp;gt;&lt;br/&gt;+ removePlaylist(UserManager, String, String): void&lt;br/&gt;+ createGeneratedMusicsPlaylist(Utilizador, List&amp;lt;Musica&amp;gt;, int, boolean): void&lt;br/&gt;+ insertPlaylist(Playlist): void&lt;/p&gt;" style="verticalAlign=top;align=left;overflow=fill;fontSize=14;fontFamily=Helvetica;html=1;rounded=0;shadow=0;comic=0;labelBackgroundColor=none;strokeWidth=1;">
      <mxGeometry x="678" y="3590" width="455" height="547" as="geometry" />
    </mxCell>
    <mxCell id="node31" parent="1" vertex="1" value="&lt;p style=&quot;margin:0px;margin-top:4px;text-align:center;&quot;&gt;&lt;b&gt;PlaylistManagerTest&lt;/b&gt;&lt;/p&gt;&lt;hr size=&quot;1&quot;/&gt;&lt;p style=&quot;margin:0 0 0 4px;line-height:1.6;&quot;&gt;+ PlaylistManagerTest(): &lt;/p&gt;&lt;hr size=&quot;1&quot;/&gt;&lt;p style=&quot;margin:0 0 0 4px;line-height:1.6;&quot;&gt;- playlistManager: PlaylistManager&lt;br/&gt;- musicManager: MusicManager&lt;br/&gt;- user: Utilizador&lt;br/&gt;- userManager: UserManager&lt;/p&gt;&lt;hr size=&quot;1&quot;/&gt;&lt;p style=&quot;margin:0 0 0 4px;line-height:1.6;&quot;&gt;+ testCreateAndInsertPlaylist(): void&lt;br/&gt;+ testRemoveMusicFromAllPlaylists(): void&lt;br/&gt;+ testSaveAndLoadPlaylists(): void&lt;br/&gt;+ testIncrementPlaylistReproductions(): void&lt;br/&gt;+ testExistsPlaylist(): void&lt;br/&gt;+ setUp(): void&lt;br/&gt;+ testCreatePublicPlaylist(): void&lt;br/&gt;+ testGetAllPlaylistsForUser(): void&lt;/p&gt;" style="verticalAlign=top;align=left;overflow=fill;fontSize=14;fontFamily=Helvetica;html=1;rounded=0;shadow=0;comic=0;labelBackgroundColor=none;strokeWidth=1;">
      <mxGeometry x="1519" y="4294" width="310" height="355" as="geometry" />
    </mxCell>
    <mxCell id="node5" parent="1" vertex="1" value="&lt;p style=&quot;margin:0px;margin-top:4px;text-align:center;&quot;&gt;&lt;b&gt;QueriesManager&lt;/b&gt;&lt;/p&gt;&lt;hr size=&quot;1&quot;/&gt;&lt;p style=&quot;margin:0 0 0 4px;line-height:1.6;&quot;&gt;+ QueriesManager(): &lt;/p&gt;&lt;hr size=&quot;1&quot;/&gt;&lt;p style=&quot;margin:0 0 0 4px;line-height:1.6;&quot;&gt;- whoIsTheUserWithTheMostPlaylists: WhoIsTheUserWithTheMostPlaylists&lt;br/&gt;- whatGenreOfMusicIsTheMostPlayed: WhatGenreOfMusicIsTheMostPlayed&lt;br/&gt;- whoIsTheMostListenedInterpreter: WhoIsTheMostListenedInterpreter&lt;br/&gt;- whichIsTheMostReproducedMusic: WhichIsTheMostReproducedMusic&lt;br/&gt;- howManyPublicPlaylistsExist: HowManyPublicPlaylistsExist&lt;br/&gt;- userThatListenedToMoreMusics: UserThatListenedToMoreMusics&lt;br/&gt;- whoIsTheUserWithTheMostPoints: WhoIsTheUserWithTheMostPoints&lt;/p&gt;&lt;hr size=&quot;1&quot;/&gt;&lt;p style=&quot;margin:0 0 0 4px;line-height:1.6;&quot;&gt;+ executeQueryWhoIsTheMostListenedInterpreter(MusicManager): String&lt;br/&gt;+ executeQueryWhoIsTheUserWithTheMostPlaylists(PlaylistManager, UserManager): Utilizador&lt;br/&gt;+ executeQueryWhatGenreOfMusicIsTheMostPlayed(MusicManager): GeneroMusical&lt;br/&gt;+ executeQueryWhoIsTheUserWithTheMostPoints(UserManager): Utilizador&lt;br/&gt;+ executeQueryHowManyPublicPalylistsExist(PlaylistManager): int&lt;br/&gt;+ executeQueryUserThatListenedToMoreMusics(UserManager, LocalDateTime, LocalDateTime): Utilizador&lt;br/&gt;+ executeQueryWhichIsTheMostReproducedMusic(MusicManager): Musica&lt;br/&gt;+ executeQueryUserThatListenedToMoreMusics(UserManager): Utilizador&lt;/p&gt;" style="verticalAlign=top;align=left;overflow=fill;fontSize=14;fontFamily=Helvetica;html=1;rounded=0;shadow=0;comic=0;labelBackgroundColor=none;strokeWidth=1;">
      <mxGeometry x="2918" y="3298" width="567" height="427" as="geometry" />
    </mxCell>
    <mxCell id="node38" parent="1" vertex="1" value="&lt;p style=&quot;margin:0px;margin-top:4px;text-align:center;&quot;&gt;&lt;b&gt;ReproducaoMusical&lt;/b&gt;&lt;/p&gt;&lt;hr size=&quot;1&quot;/&gt;&lt;p style=&quot;margin:0 0 0 4px;line-height:1.6;&quot;&gt;+ ReproducaoMusical(): &lt;br/&gt;+ ReproducaoMusical(ReproducaoMusical): &lt;br/&gt;+ ReproducaoMusical(String, LocalDateTime, String): &lt;/p&gt;&lt;hr size=&quot;1&quot;/&gt;&lt;p style=&quot;margin:0 0 0 4px;line-height:1.6;&quot;&gt;- serialVersionUID: long&lt;br/&gt;- dataReproducao: LocalDateTime&lt;br/&gt;- email: String&lt;br/&gt;- musica: String&lt;/p&gt;&lt;hr size=&quot;1&quot;/&gt;&lt;p style=&quot;margin:0 0 0 4px;line-height:1.6;&quot;&gt;+ setDataReproducao(LocalDateTime): void&lt;br/&gt;+ setEmail(String): void&lt;br/&gt;+ setMusica(String): void&lt;br/&gt;+ getEmail(): String&lt;br/&gt;+ getMusica(): String&lt;br/&gt;+ clone(): ReproducaoMusical&lt;br/&gt;+ equals(Object): boolean&lt;br/&gt;+ toString(): String&lt;br/&gt;+ getDataReproducao(): LocalDateTime&lt;/p&gt;" style="verticalAlign=top;align=left;overflow=fill;fontSize=14;fontFamily=Helvetica;html=1;rounded=0;shadow=0;comic=0;labelBackgroundColor=none;strokeWidth=1;">
      <mxGeometry x="1732" y="3805" width="365" height="427" as="geometry" />
    </mxCell>
    <mxCell id="node39" parent="1" vertex="1" value="&lt;p style=&quot;margin:0px;margin-top:4px;text-align:center;&quot;&gt;&lt;i&gt;&amp;lt;&amp;lt;interface&amp;gt;&amp;gt;&lt;/i&gt;&lt;br/&gt;&lt;b&gt;ReproducaoMusicalInterface&lt;/b&gt;&lt;/p&gt;&lt;hr size=&quot;1&quot;/&gt;&lt;p style=&quot;margin:0 0 0 4px;line-height:1.6;&quot;&gt;+ toString(): String&lt;br/&gt;+ equals(Object): boolean&lt;br/&gt;+ setMusica(String): void&lt;br/&gt;+ getMusica(): String&lt;br/&gt;+ clone(): ReproducaoMusical&lt;br/&gt;+ setEmail(String): void&lt;br/&gt;+ getDataReproducao(): LocalDateTime&lt;br/&gt;+ getEmail(): String&lt;br/&gt;+ setDataReproducao(LocalDateTime): void&lt;/p&gt;" style="verticalAlign=top;align=left;overflow=fill;fontSize=14;fontFamily=Helvetica;html=1;rounded=0;shadow=0;comic=0;labelBackgroundColor=none;strokeWidth=1;">
      <mxGeometry x="1369" y="3610" width="302" height="255" as="geometry" />
    </mxCell>
    <mxCell id="node27" parent="1" vertex="1" value="&lt;p style=&quot;margin:0px;margin-top:4px;text-align:center;&quot;&gt;&lt;b&gt;ReproducaoMusicalTest&lt;/b&gt;&lt;/p&gt;&lt;hr size=&quot;1&quot;/&gt;&lt;p style=&quot;margin:0 0 0 4px;line-height:1.6;&quot;&gt;+ ReproducaoMusicalTest(): &lt;/p&gt;&lt;hr size=&quot;1&quot;/&gt;&lt;p style=&quot;margin:0 0 0 4px;line-height:1.6;&quot;&gt;+ testClone(): void&lt;br/&gt;+ testConstructors(): void&lt;br/&gt;+ testToString(): void&lt;br/&gt;+ testEquals(): void&lt;br/&gt;+ testGettersAndSetters(): void&lt;/p&gt;" style="verticalAlign=top;align=left;overflow=fill;fontSize=14;fontFamily=Helvetica;html=1;rounded=0;shadow=0;comic=0;labelBackgroundColor=none;strokeWidth=1;">
      <mxGeometry x="1607" y="3227" width="236" height="185" as="geometry" />
    </mxCell>
    <mxCell id="node35" parent="1" vertex="1" value="&lt;p style=&quot;margin:0px;margin-top:4px;text-align:center;&quot;&gt;&lt;b&gt;ReproductionManager&lt;/b&gt;&lt;/p&gt;&lt;hr size=&quot;1&quot;/&gt;&lt;p style=&quot;margin:0 0 0 4px;line-height:1.6;&quot;&gt;+ ReproductionManager(): &lt;/p&gt;&lt;hr size=&quot;1&quot;/&gt;&lt;p style=&quot;margin:0 0 0 4px;line-height:1.6;&quot;&gt;- reproducoes: List&amp;lt;ReproducaoMusical&amp;gt;&lt;/p&gt;&lt;hr size=&quot;1&quot;/&gt;&lt;p style=&quot;margin:0 0 0 4px;line-height:1.6;&quot;&gt;+ getReproducoesByMusica(String): List&amp;lt;ReproducaoMusical&amp;gt;&lt;br/&gt;+ save(String): void&lt;br/&gt;+ getReproducoesByEmail(String): List&amp;lt;ReproducaoMusical&amp;gt;&lt;br/&gt;+ createReproducao(String, String, LocalDateTime): void&lt;br/&gt;+ getAllReproducoes(): List&amp;lt;ReproducaoMusical&amp;gt;&lt;br/&gt;+ removeReproducao(String, String): void&lt;br/&gt;+ load(String): void&lt;br/&gt;+ addReproducao(ReproducaoMusical): void&lt;/p&gt;" style="verticalAlign=top;align=left;overflow=fill;fontSize=14;fontFamily=Helvetica;html=1;rounded=0;shadow=0;comic=0;labelBackgroundColor=none;strokeWidth=1;">
      <mxGeometry x="1400" y="1425" width="424" height="283" as="geometry" />
    </mxCell>
    <mxCell id="node26" parent="1" vertex="1" value="&lt;p style=&quot;margin:0px;margin-top:4px;text-align:center;&quot;&gt;&lt;b&gt;ReproductionManagerTest&lt;/b&gt;&lt;/p&gt;&lt;hr size=&quot;1&quot;/&gt;&lt;p style=&quot;margin:0 0 0 4px;line-height:1.6;&quot;&gt;+ ReproductionManagerTest(): &lt;/p&gt;&lt;hr size=&quot;1&quot;/&gt;&lt;p style=&quot;margin:0 0 0 4px;line-height:1.6;&quot;&gt;- sampleReproducao: ReproducaoMusical&lt;br/&gt;- manager: ReproductionManager&lt;/p&gt;&lt;hr size=&quot;1&quot;/&gt;&lt;p style=&quot;margin:0 0 0 4px;line-height:1.6;&quot;&gt;~ testGetReproducoesByEmailInvalid(): void&lt;br/&gt;~ testGetReproducoesByEmail(): void&lt;br/&gt;~ setUp(): void&lt;br/&gt;~ testGetReproducoesByMusicaInvalid(): void&lt;br/&gt;~ testSaveAndLoad(): void&lt;br/&gt;~ testCreateReproducaoWithNullArguments(): void&lt;br/&gt;~ testAddReproducaoWithNull(): void&lt;br/&gt;~ testRemoveReproducao(): void&lt;br/&gt;~ testCreateReproducao(): void&lt;br/&gt;~ testRemoveReproducaoWithInvalidArguments(): void&lt;br/&gt;~ testGetAllReproducoes(): void&lt;br/&gt;~ testGetReproducoesByMusica(): void&lt;/p&gt;" style="verticalAlign=top;align=left;overflow=fill;fontSize=14;fontFamily=Helvetica;html=1;rounded=0;shadow=0;comic=0;labelBackgroundColor=none;strokeWidth=1;">
      <mxGeometry x="1009" y="1797" width="374" height="403" as="geometry" />
    </mxCell>
    <mxCell id="node34" parent="1" vertex="1" value="&lt;p style=&quot;margin:0px;margin-top:4px;text-align:center;&quot;&gt;&lt;b&gt;Spotifum&lt;/b&gt;&lt;/p&gt;&lt;hr size=&quot;1&quot;/&gt;&lt;p style=&quot;margin:0 0 0 4px;line-height:1.6;&quot;&gt;+ Spotifum(): &lt;/p&gt;&lt;hr size=&quot;1&quot;/&gt;&lt;p style=&quot;margin:0 0 0 4px;line-height:1.6;&quot;&gt;- reproductionManager: ReproductionManager&lt;br/&gt;- playlistManager: PlaylistManager&lt;br/&gt;- userManager: UserManager&lt;br/&gt;- musicManager: MusicManager&lt;br/&gt;- queriesManager: QueriesManager&lt;br/&gt;- DEFAULT_STATE_DIR: String&lt;/p&gt;&lt;hr size=&quot;1&quot;/&gt;&lt;p style=&quot;margin:0 0 0 4px;line-height:1.6;&quot;&gt;+ loadEstado(String): void&lt;br/&gt;+ executeQueryWhichIsTheMostReproducedMusic(): Musica&lt;br/&gt;+ updateUserPlan(PlanoSubscricao, String): void&lt;br/&gt;+ existsMusic(String): boolean&lt;br/&gt;+ getMusica(String): Musica&lt;br/&gt;+ executeQueryUserThatListenedToMoreMusics(): Utilizador&lt;br/&gt;+ getAllUsers(): List&amp;lt;Utilizador&amp;gt;&lt;br/&gt;+ removeUser(String): void&lt;br/&gt;+ removeFavoriteMusic(String, String): void&lt;br/&gt;+ executeQueryWhoIsTheUserWithTheMostPlaylists(): Utilizador&lt;br/&gt;+ getAllMusics(): List&amp;lt;Musica&amp;gt;&lt;br/&gt;+ getPlaylist(String, String): Playlist&lt;br/&gt;+ executeQueryWhoIsTheUserWithTheMostPoints(): Utilizador&lt;br/&gt;+ updateUserAddress(String, String): void&lt;br/&gt;+ executeQueryWhatGenreOfMusicIsTheMostPlayed(): GeneroMusical&lt;br/&gt;+ createPlaylist(String, List&amp;lt;String&amp;gt;, String, boolean): void&lt;br/&gt;+ existsPlaylist(String, String): boolean&lt;br/&gt;+ addFavoriteMusic(String, String): void&lt;br/&gt;+ executeQueryHowManyPublicPalylistsExist(): int&lt;br/&gt;+ removeMusic(String): void&lt;br/&gt;+ getUser(String): Utilizador&lt;br/&gt;+ addMusicReproduction(String, String, LocalDateTime): void&lt;br/&gt;+ removePlaylist(String, String): void&lt;br/&gt;+ createMusica(String, String, String, String, List&amp;lt;String&amp;gt;, GeneroMusical, int, int, TipoMusica): void&lt;br/&gt;+ executeQueryUserThatListenedToMoreMusics(LocalDateTime, LocalDateTime): Utilizador&lt;br/&gt;+ createUser(String, String, String, double, List&amp;lt;Musica&amp;gt;, PlanoSubscricao, List&amp;lt;ReproducaoMusical&amp;gt;): void&lt;br/&gt;+ getAllPlaylists(): List&amp;lt;Playlist&amp;gt;&lt;br/&gt;+ existsUser(String): boolean&lt;br/&gt;+ guardarEstado(String): void&lt;br/&gt;+ executeQueryWhoIsTheMostListenedInterpreter(): String&lt;br/&gt;+ updateUserName(String, String): void&lt;/p&gt;" style="verticalAlign=top;align=left;overflow=fill;fontSize=14;fontFamily=Helvetica;html=1;rounded=0;shadow=0;comic=0;labelBackgroundColor=none;strokeWidth=1;">
      <mxGeometry x="406" y="1702" width="519" height="955" as="geometry" />
    </mxCell>
    <mxCell id="node46" parent="1" vertex="1" value="&lt;p style=&quot;margin:0px;margin-top:4px;text-align:center;&quot;&gt;&lt;b&gt;SpotifumController&lt;/b&gt;&lt;/p&gt;&lt;hr size=&quot;1&quot;/&gt;&lt;p style=&quot;margin:0 0 0 4px;line-height:1.6;&quot;&gt;+ SpotifumController(): &lt;/p&gt;&lt;hr size=&quot;1&quot;/&gt;&lt;p style=&quot;margin:0 0 0 4px;line-height:1.6;&quot;&gt;- currentUserEmail: String&lt;br/&gt;- spotifum: Spotifum&lt;/p&gt;&lt;hr size=&quot;1&quot;/&gt;&lt;p style=&quot;margin:0 0 0 4px;line-height:1.6;&quot;&gt;+ setCurrentUserEmail(String): void&lt;br/&gt;+ createUser(String, String, String, double, List&amp;lt;Musica&amp;gt;, PlanoSubscricao, List&amp;lt;ReproducaoMusical&amp;gt;): void&lt;br/&gt;+ removePlaylist(String, String): void&lt;br/&gt;+ getUserThatListenedToMoreMusics(): Utilizador&lt;br/&gt;+ createMusica(String, String, String, String, List&amp;lt;String&amp;gt;, GeneroMusical, int, int, TipoMusica): void&lt;br/&gt;+ removeMusic(String): void&lt;br/&gt;+ getAllUsers(): List&amp;lt;Utilizador&amp;gt;&lt;br/&gt;+ addMusicReproduction(String, LocalDateTime): void&lt;br/&gt;+ existsMusic(String): boolean&lt;br/&gt;+ getPlaylist(String, String): Playlist&lt;br/&gt;+ getAllPlaylists(): List&amp;lt;Playlist&amp;gt;&lt;br/&gt;+ getUser(String): Utilizador&lt;br/&gt;+ getAllMusics(): List&amp;lt;Musica&amp;gt;&lt;br/&gt;+ removeFavoriteMusic(String): void&lt;br/&gt;+ getCurrentUserEmail(): String&lt;br/&gt;+ getMostPlayedGenre(): GeneroMusical&lt;br/&gt;+ getMostListenedInterpreter(): String&lt;br/&gt;+ createPlaylist(String, List&amp;lt;String&amp;gt;, String, boolean): void&lt;br/&gt;+ updateUserName(String, String): void&lt;br/&gt;+ getUserWithMostPlaylists(): Utilizador&lt;br/&gt;+ addFavoriteMusic(String): void&lt;br/&gt;+ getUserThatListenedToMoreMusics(LocalDateTime, LocalDateTime): Utilizador&lt;br/&gt;+ getUserWithMostPoints(): Utilizador&lt;br/&gt;+ existsUser(String): boolean&lt;br/&gt;+ getMostReproducedMusic(): Musica&lt;br/&gt;+ existsPlaylist(String, String): boolean&lt;br/&gt;+ updateUserAddress(String, String): void&lt;br/&gt;+ removeUser(String): void&lt;br/&gt;+ updateUserPlan(PlanoSubscricao, String): void&lt;br/&gt;+ getMusica(String): Musica&lt;br/&gt;+ getHowManyPublicPlaylistsExist(): int&lt;/p&gt;" style="verticalAlign=top;align=left;overflow=fill;fontSize=14;fontFamily=Helvetica;html=1;rounded=0;shadow=0;comic=0;labelBackgroundColor=none;strokeWidth=1;">
      <mxGeometry x="-182" y="1715" width="528" height="859" as="geometry" />
    </mxCell>
    <mxCell id="node44" parent="1" vertex="1" value="&lt;p style=&quot;margin:0px;margin-top:4px;text-align:center;&quot;&gt;&lt;b&gt;SystemManager&lt;/b&gt;&lt;/p&gt;&lt;hr size=&quot;1&quot;/&gt;&lt;p style=&quot;margin:0 0 0 4px;line-height:1.6;&quot;&gt;+ SystemManager(): &lt;/p&gt;&lt;hr size=&quot;1&quot;/&gt;&lt;p style=&quot;margin:0 0 0 4px;line-height:1.6;&quot;&gt;- DEFAULT_STATE_DIR: String&lt;br/&gt;- reproductionManager: ReproductionManager&lt;br/&gt;- userManager: UserManager&lt;br/&gt;- musicManager: MusicManager&lt;br/&gt;- playlistManager: PlaylistManager&lt;/p&gt;&lt;hr size=&quot;1&quot;/&gt;&lt;p style=&quot;margin:0 0 0 4px;line-height:1.6;&quot;&gt;+ guardarEstado(String): void&lt;br/&gt;+ getPlaylistManager(): PlaylistManager&lt;br/&gt;+ getUserManager(): UserManager&lt;br/&gt;+ getReproductionManager(): ReproductionManager&lt;br/&gt;+ getMusicManager(): MusicManager&lt;br/&gt;+ loadEstado(String): void&lt;/p&gt;" style="verticalAlign=top;align=left;overflow=fill;fontSize=14;fontFamily=Helvetica;html=1;rounded=0;shadow=0;comic=0;labelBackgroundColor=none;strokeWidth=1;">
      <mxGeometry x="1387" y="934" width="361" height="331" as="geometry" />
    </mxCell>
    <mxCell id="node25" parent="1" vertex="1" value="&lt;p style=&quot;margin:0px;margin-top:4px;text-align:center;&quot;&gt;&lt;i&gt;&amp;lt;&amp;lt;enumeration&amp;gt;&amp;gt;&lt;/i&gt;&lt;br/&gt;&lt;b&gt;TipoMusica&lt;/b&gt;&lt;/p&gt;&lt;hr size=&quot;1&quot;/&gt;&lt;p style=&quot;margin:0 0 0 4px;line-height:1.6;&quot;&gt;+ TipoMusica(): &lt;/p&gt;&lt;hr size=&quot;1&quot;/&gt;&lt;p style=&quot;margin:0 0 0 4px;line-height:1.6;&quot;&gt;+ NORMAL: &lt;br/&gt;+ MULTIMEDIA: &lt;br/&gt;+ EXPLICITA: &lt;/p&gt;&lt;hr size=&quot;1&quot;/&gt;&lt;p style=&quot;margin:0 0 0 4px;line-height:1.6;&quot;&gt;+ values(): TipoMusica[]&lt;br/&gt;+ valueOf(String): TipoMusica&lt;/p&gt;" style="verticalAlign=top;align=left;overflow=fill;fontSize=14;fontFamily=Helvetica;html=1;rounded=0;shadow=0;comic=0;labelBackgroundColor=none;strokeWidth=1;">
      <mxGeometry x="2280" y="3289" width="218" height="187" as="geometry" />
    </mxCell>
    <mxCell id="node60" parent="1" vertex="1" value="&lt;p style=&quot;margin:0px;margin-top:4px;text-align:center;&quot;&gt;&lt;b&gt;UserAlreadyExistsException&lt;/b&gt;&lt;/p&gt;&lt;hr size=&quot;1&quot;/&gt;&lt;p style=&quot;margin:0 0 0 4px;line-height:1.6;&quot;&gt;+ UserAlreadyExistsException(String): &lt;/p&gt;" style="verticalAlign=top;align=left;overflow=fill;fontSize=14;fontFamily=Helvetica;html=1;rounded=0;shadow=0;comic=0;labelBackgroundColor=none;strokeWidth=1;">
      <mxGeometry x="1085" y="4517" width="275" height="68" as="geometry" />
    </mxCell>
    <mxCell id="node3" parent="1" vertex="1" value="&lt;p style=&quot;margin:0px;margin-top:4px;text-align:center;&quot;&gt;&lt;b&gt;UserManager&lt;/b&gt;&lt;/p&gt;&lt;hr size=&quot;1&quot;/&gt;&lt;p style=&quot;margin:0 0 0 4px;line-height:1.6;&quot;&gt;+ UserManager(): &lt;br/&gt;+ UserManager(Map&amp;lt;String, Utilizador&amp;gt;): &lt;/p&gt;&lt;hr size=&quot;1&quot;/&gt;&lt;p style=&quot;margin:0 0 0 4px;line-height:1.6;&quot;&gt;- utilizadores: Map&amp;lt;String, Utilizador&amp;gt;&lt;/p&gt;&lt;hr size=&quot;1&quot;/&gt;&lt;p style=&quot;margin:0 0 0 4px;line-height:1.6;&quot;&gt;+ createUser(String, String, String, PlanoSubscricao): Utilizador&lt;br/&gt;+ insertUser(Utilizador): void&lt;br/&gt;+ removeUser(String): void&lt;br/&gt;+ removeFavoriteMusic(MusicManager, String, String): void&lt;br/&gt;+ clone(): UserManager&lt;br/&gt;+ addFavoriteMusic(MusicManager, String, String): void&lt;br/&gt;+ addMusicReproduction(MusicManager, String, String, LocalDateTime): void&lt;br/&gt;+ load(String): void&lt;br/&gt;+ getUser(String): Utilizador&lt;br/&gt;+ existsUser(String): boolean&lt;br/&gt;+ save(String): void&lt;br/&gt;- getValidatedMusic(MusicManager, String): Musica&lt;br/&gt;+ updateUser(Utilizador): void&lt;br/&gt;+ getAllUsers(): List&amp;lt;Utilizador&amp;gt;&lt;/p&gt;" style="verticalAlign=top;align=left;overflow=fill;fontSize=14;fontFamily=Helvetica;html=1;rounded=0;shadow=0;comic=0;labelBackgroundColor=none;strokeWidth=1;">
      <mxGeometry x="1944" y="659" width="474" height="451" as="geometry" />
    </mxCell>
    <mxCell id="node48" parent="1" vertex="1" value="&lt;p style=&quot;margin:0px;margin-top:4px;text-align:center;&quot;&gt;&lt;b&gt;UserManagerTest&lt;/b&gt;&lt;/p&gt;&lt;hr size=&quot;1&quot;/&gt;&lt;p style=&quot;margin:0 0 0 4px;line-height:1.6;&quot;&gt;+ UserManagerTest(): &lt;/p&gt;&lt;hr size=&quot;1&quot;/&gt;&lt;p style=&quot;margin:0 0 0 4px;line-height:1.6;&quot;&gt;+ testCreateAndInsertUser(): void&lt;br/&gt;+ testAddMusicReproduction(): void&lt;br/&gt;+ testCreateUserInvalidInputs(): void&lt;br/&gt;+ testGetAllUsers(): void&lt;br/&gt;+ testCreateUserDuplicate(): void&lt;br/&gt;+ testConstructor(): void&lt;br/&gt;+ testCreateUserValidInputs(): void&lt;br/&gt;+ testGetUserbyEmail(): void&lt;br/&gt;+ testAddFavoriteMusic(): void&lt;br/&gt;+ testRemoveUser(): void&lt;/p&gt;" style="verticalAlign=top;align=left;overflow=fill;fontSize=14;fontFamily=Helvetica;html=1;rounded=0;shadow=0;comic=0;labelBackgroundColor=none;strokeWidth=1;">
      <mxGeometry x="374" y="1220" width="263" height="305" as="geometry" />
    </mxCell>
    <mxCell id="node40" parent="1" vertex="1" value="&lt;p style=&quot;margin:0px;margin-top:4px;text-align:center;&quot;&gt;&lt;b&gt;UserNotFoundException&lt;/b&gt;&lt;/p&gt;&lt;hr size=&quot;1&quot;/&gt;&lt;p style=&quot;margin:0 0 0 4px;line-height:1.6;&quot;&gt;+ UserNotFoundException(String): &lt;/p&gt;" style="verticalAlign=top;align=left;overflow=fill;fontSize=14;fontFamily=Helvetica;html=1;rounded=0;shadow=0;comic=0;labelBackgroundColor=none;strokeWidth=1;">
      <mxGeometry x="1857" y="4731" width="254" height="68" as="geometry" />
    </mxCell>
    <mxCell id="node11" parent="1" vertex="1" value="&lt;p style=&quot;margin:0px;margin-top:4px;text-align:center;&quot;&gt;&lt;b&gt;UserThatListenedToMoreMusics&lt;/b&gt;&lt;/p&gt;&lt;hr size=&quot;1&quot;/&gt;&lt;p style=&quot;margin:0 0 0 4px;line-height:1.6;&quot;&gt;+ UserThatListenedToMoreMusics(): &lt;/p&gt;&lt;hr size=&quot;1&quot;/&gt;&lt;p style=&quot;margin:0 0 0 4px;line-height:1.6;&quot;&gt;+ executeQuery(UserManager, LocalDateTime, LocalDateTime): Utilizador&lt;br/&gt;+ executeQuery(UserManager): Utilizador&lt;/p&gt;" style="verticalAlign=top;align=left;overflow=fill;fontSize=14;fontFamily=Helvetica;html=1;rounded=0;shadow=0;comic=0;labelBackgroundColor=none;strokeWidth=1;">
      <mxGeometry x="1886" y="1561" width="493" height="122" as="geometry" />
    </mxCell>
    <mxCell id="node57" parent="1" vertex="1" value="&lt;p style=&quot;margin:0px;margin-top:4px;text-align:center;&quot;&gt;&lt;b&gt;UserThatListenedToMoreMusicsTest&lt;/b&gt;&lt;/p&gt;&lt;hr size=&quot;1&quot;/&gt;&lt;p style=&quot;margin:0 0 0 4px;line-height:1.6;&quot;&gt;+ UserThatListenedToMoreMusicsTest(): &lt;/p&gt;&lt;hr size=&quot;1&quot;/&gt;&lt;p style=&quot;margin:0 0 0 4px;line-height:1.6;&quot;&gt;- userManager: UserManager&lt;br/&gt;- musicManager: MusicManager&lt;br/&gt;- musica: Musica&lt;/p&gt;&lt;hr size=&quot;1&quot;/&gt;&lt;p style=&quot;margin:0 0 0 4px;line-height:1.6;&quot;&gt;~ testExecuteQueryWithInvalidDates(): void&lt;br/&gt;~ testExecuteQueryWithNoReproductionsInDateRange(): void&lt;br/&gt;~ testExecuteQueryWithoutDateRange(): void&lt;br/&gt;~ setUp(): void&lt;br/&gt;~ testExecuteQueryWithDateRange(): void&lt;/p&gt;" style="verticalAlign=top;align=left;overflow=fill;fontSize=14;fontFamily=Helvetica;html=1;rounded=0;shadow=0;comic=0;labelBackgroundColor=none;strokeWidth=1;">
      <mxGeometry x="685" y="4198" width="418" height="259" as="geometry" />
    </mxCell>
    <mxCell id="node59" parent="1" vertex="1" value="&lt;p style=&quot;margin:0px;margin-top:4px;text-align:center;&quot;&gt;&lt;b&gt;Utilizador&lt;/b&gt;&lt;/p&gt;&lt;hr size=&quot;1&quot;/&gt;&lt;p style=&quot;margin:0 0 0 4px;line-height:1.6;&quot;&gt;+ Utilizador(String, String, String, PlanoSubscricao): &lt;br/&gt;+ Utilizador(Utilizador): &lt;br/&gt;+ Utilizador(): &lt;/p&gt;&lt;hr size=&quot;1&quot;/&gt;&lt;p style=&quot;margin:0 0 0 4px;line-height:1.6;&quot;&gt;- nome: String&lt;br/&gt;- musicasFavoritas: List&amp;lt;Musica&amp;gt;&lt;br/&gt;- reproducoes: List&amp;lt;ReproducaoMusical&amp;gt;&lt;br/&gt;- morada: String&lt;br/&gt;- plano: PlanoSubscricao&lt;br/&gt;- pontos: double&lt;br/&gt;- serialVersionUID: long&lt;br/&gt;- email: String&lt;/p&gt;&lt;hr size=&quot;1&quot;/&gt;&lt;p style=&quot;margin:0 0 0 4px;line-height:1.6;&quot;&gt;+ clone(): Utilizador&lt;br/&gt;+ setPontos(double): void&lt;br/&gt;+ getPontos(): double&lt;br/&gt;+ getMusicasFavoritas(): List&amp;lt;Musica&amp;gt;&lt;br/&gt;+ getMorada(): String&lt;br/&gt;+ toString(): String&lt;br/&gt;+ getNome(): String&lt;br/&gt;+ setMorada(String): void&lt;br/&gt;+ getPlano(): PlanoSubscricao&lt;br/&gt;+ setPlano(PlanoSubscricao): void&lt;br/&gt;+ getPreferredGenres(): List&amp;lt;GeneroMusical&amp;gt;&lt;br/&gt;+ reproduzirMusica(): void&lt;br/&gt;+ getReproducaoMusical(): List&amp;lt;ReproducaoMusical&amp;gt;&lt;br/&gt;+ setReproducoes(List&amp;lt;ReproducaoMusical&amp;gt;): void&lt;br/&gt;+ setNome(String): void&lt;br/&gt;+ getEmail(): String&lt;br/&gt;+ removeMusicFromFavorites(Musica): void&lt;br/&gt;+ setEmail(String): void&lt;br/&gt;+ addMusicToFavorites(Musica): void&lt;br/&gt;+ equals(Object): boolean&lt;/p&gt;" style="verticalAlign=top;align=left;overflow=fill;fontSize=14;fontFamily=Helvetica;html=1;rounded=0;shadow=0;comic=0;labelBackgroundColor=none;strokeWidth=1;">
      <mxGeometry x="908" y="855" width="367" height="787" as="geometry" />
    </mxCell>
    <mxCell id="node49" parent="1" vertex="1" value="&lt;p style=&quot;margin:0px;margin-top:4px;text-align:center;&quot;&gt;&lt;i&gt;&amp;lt;&amp;lt;interface&amp;gt;&amp;gt;&lt;/i&gt;&lt;br/&gt;&lt;b&gt;UtilizadorInterface&lt;/b&gt;&lt;/p&gt;&lt;hr size=&quot;1&quot;/&gt;&lt;p style=&quot;margin:0 0 0 4px;line-height:1.6;&quot;&gt;+ getMorada(): String&lt;br/&gt;+ getPontos(): double&lt;br/&gt;+ setReproducoes(List&amp;lt;ReproducaoMusical&amp;gt;): void&lt;br/&gt;+ setNome(String): void&lt;br/&gt;+ getPlano(): PlanoSubscricao&lt;br/&gt;+ equals(Object): boolean&lt;br/&gt;+ getNome(): String&lt;br/&gt;+ addMusicToFavorites(Musica): void&lt;br/&gt;+ clone(): Utilizador&lt;br/&gt;+ setMorada(String): void&lt;br/&gt;+ setEmail(String): void&lt;br/&gt;+ getPreferredGenres(): List&amp;lt;GeneroMusical&amp;gt;&lt;br/&gt;+ getEmail(): String&lt;br/&gt;+ setPlano(PlanoSubscricao): void&lt;br/&gt;+ toString(): String&lt;br/&gt;+ reproduzirMusica(): void&lt;br/&gt;+ getReproducaoMusical(): List&amp;lt;ReproducaoMusical&amp;gt;&lt;br/&gt;+ removeMusicFromFavorites(Musica): void&lt;br/&gt;+ getMusicasFavoritas(): List&amp;lt;Musica&amp;gt;&lt;/p&gt;" style="verticalAlign=top;align=left;overflow=fill;fontSize=14;fontFamily=Helvetica;html=1;rounded=0;shadow=0;comic=0;labelBackgroundColor=none;strokeWidth=1;">
      <mxGeometry x="480" y="306" width="367" height="495" as="geometry" />
    </mxCell>
    <mxCell id="node29" parent="1" vertex="1" value="&lt;p style=&quot;margin:0px;margin-top:4px;text-align:center;&quot;&gt;&lt;b&gt;WhatGenreOfMusicIsTheMostPlayed&lt;/b&gt;&lt;/p&gt;&lt;hr size=&quot;1&quot;/&gt;&lt;p style=&quot;margin:0 0 0 4px;line-height:1.6;&quot;&gt;+ WhatGenreOfMusicIsTheMostPlayed(): &lt;/p&gt;&lt;hr size=&quot;1&quot;/&gt;&lt;p style=&quot;margin:0 0 0 4px;line-height:1.6;&quot;&gt;- max(int[]): int&lt;br/&gt;+ executeQuery(MusicManager): GeneroMusical&lt;/p&gt;" style="verticalAlign=top;align=left;overflow=fill;fontSize=14;fontFamily=Helvetica;html=1;rounded=0;shadow=0;comic=0;labelBackgroundColor=none;strokeWidth=1;">
      <mxGeometry x="1401" y="2410" width="337" height="122" as="geometry" />
    </mxCell>
    <mxCell id="node41" parent="1" vertex="1" value="&lt;p style=&quot;margin:0px;margin-top:4px;text-align:center;&quot;&gt;&lt;b&gt;WhatGenreOfMusicIsTheMostPlayedTest&lt;/b&gt;&lt;/p&gt;&lt;hr size=&quot;1&quot;/&gt;&lt;p style=&quot;margin:0 0 0 4px;line-height:1.6;&quot;&gt;+ WhatGenreOfMusicIsTheMostPlayedTest(): &lt;/p&gt;&lt;hr size=&quot;1&quot;/&gt;&lt;p style=&quot;margin:0 0 0 4px;line-height:1.6;&quot;&gt;- musicManager: MusicManager&lt;/p&gt;&lt;hr size=&quot;1&quot;/&gt;&lt;p style=&quot;margin:0 0 0 4px;line-height:1.6;&quot;&gt;~ testMostPlayedGenreIsPop(): void&lt;br/&gt;~ setUp(): void&lt;br/&gt;~ testWithTieReturnsFirstGenreWithMax(): void&lt;br/&gt;~ testMostPlayedGenreIsRock(): void&lt;br/&gt;~ testWithNoMusicsReturnsDefaultGenre(): void&lt;/p&gt;" style="verticalAlign=top;align=left;overflow=fill;fontSize=14;fontFamily=Helvetica;html=1;rounded=0;shadow=0;comic=0;labelBackgroundColor=none;strokeWidth=1;">
      <mxGeometry x="248" y="3567" width="367" height="211" as="geometry" />
    </mxCell>
    <mxCell id="node23" parent="1" vertex="1" value="&lt;p style=&quot;margin:0px;margin-top:4px;text-align:center;&quot;&gt;&lt;b&gt;WhichIsTheMostReproducedMusic&lt;/b&gt;&lt;/p&gt;&lt;hr size=&quot;1&quot;/&gt;&lt;p style=&quot;margin:0 0 0 4px;line-height:1.6;&quot;&gt;+ WhichIsTheMostReproducedMusic(): &lt;/p&gt;&lt;hr size=&quot;1&quot;/&gt;&lt;p style=&quot;margin:0 0 0 4px;line-height:1.6;&quot;&gt;+ executeQuery(MusicManager): Musica&lt;/p&gt;" style="verticalAlign=top;align=left;overflow=fill;fontSize=14;fontFamily=Helvetica;html=1;rounded=0;shadow=0;comic=0;labelBackgroundColor=none;strokeWidth=1;">
      <mxGeometry x="559" y="2719" width="318" height="96" as="geometry" />
    </mxCell>
    <mxCell id="node8" parent="1" vertex="1" value="&lt;p style=&quot;margin:0px;margin-top:4px;text-align:center;&quot;&gt;&lt;b&gt;WhichIsTheMostReproducedMusicTest&lt;/b&gt;&lt;/p&gt;&lt;hr size=&quot;1&quot;/&gt;&lt;p style=&quot;margin:0 0 0 4px;line-height:1.6;&quot;&gt;+ WhichIsTheMostReproducedMusicTest(): &lt;/p&gt;&lt;hr size=&quot;1&quot;/&gt;&lt;p style=&quot;margin:0 0 0 4px;line-height:1.6;&quot;&gt;- musicManager: MusicManager&lt;/p&gt;&lt;hr size=&quot;1&quot;/&gt;&lt;p style=&quot;margin:0 0 0 4px;line-height:1.6;&quot;&gt;~ testMostReproducedMusicIsCorrect(): void&lt;br/&gt;~ testTieReturnsFirstInserted(): void&lt;br/&gt;~ setUp(): void&lt;br/&gt;~ testEmptyMusicListReturnsNull(): void&lt;/p&gt;" style="verticalAlign=top;align=left;overflow=fill;fontSize=14;fontFamily=Helvetica;html=1;rounded=0;shadow=0;comic=0;labelBackgroundColor=none;strokeWidth=1;">
      <mxGeometry x="689" y="3330" width="352" height="187" as="geometry" />
    </mxCell>
    <mxCell id="node16" parent="1" vertex="1" value="&lt;p style=&quot;margin:0px;margin-top:4px;text-align:center;&quot;&gt;&lt;b&gt;WhoIsTheMostListenedInterpreter&lt;/b&gt;&lt;/p&gt;&lt;hr size=&quot;1&quot;/&gt;&lt;p style=&quot;margin:0 0 0 4px;line-height:1.6;&quot;&gt;+ WhoIsTheMostListenedInterpreter(): &lt;/p&gt;&lt;hr size=&quot;1&quot;/&gt;&lt;p style=&quot;margin:0 0 0 4px;line-height:1.6;&quot;&gt;+ executeQuery(MusicManager): String&lt;/p&gt;" style="verticalAlign=top;align=left;overflow=fill;fontSize=14;fontFamily=Helvetica;html=1;rounded=0;shadow=0;comic=0;labelBackgroundColor=none;strokeWidth=1;">
      <mxGeometry x="1456" y="1787" width="315" height="96" as="geometry" />
    </mxCell>
    <mxCell id="node47" parent="1" vertex="1" value="&lt;p style=&quot;margin:0px;margin-top:4px;text-align:center;&quot;&gt;&lt;b&gt;WhoIsTheMostListenedInterpreterTest&lt;/b&gt;&lt;/p&gt;&lt;hr size=&quot;1&quot;/&gt;&lt;p style=&quot;margin:0 0 0 4px;line-height:1.6;&quot;&gt;+ WhoIsTheMostListenedInterpreterTest(): &lt;/p&gt;&lt;hr size=&quot;1&quot;/&gt;&lt;p style=&quot;margin:0 0 0 4px;line-height:1.6;&quot;&gt;- musicManager: MusicManager&lt;/p&gt;&lt;hr size=&quot;1&quot;/&gt;&lt;p style=&quot;margin:0 0 0 4px;line-height:1.6;&quot;&gt;~ setUp(): void&lt;br/&gt;~ testMostListenedInterpreterIsCorrect(): void&lt;br/&gt;~ testEmptyMusicListThrowsException(): void&lt;br/&gt;~ testTieReturnsOneOfThem(): void&lt;/p&gt;" style="verticalAlign=top;align=left;overflow=fill;fontSize=14;fontFamily=Helvetica;html=1;rounded=0;shadow=0;comic=0;labelBackgroundColor=none;strokeWidth=1;">
      <mxGeometry x="1102" y="3114" width="349" height="187" as="geometry" />
    </mxCell>
    <mxCell id="node54" parent="1" vertex="1" value="&lt;p style=&quot;margin:0px;margin-top:4px;text-align:center;&quot;&gt;&lt;b&gt;WhoIsTheUserWithTheMostPlaylists&lt;/b&gt;&lt;/p&gt;&lt;hr size=&quot;1&quot;/&gt;&lt;p style=&quot;margin:0 0 0 4px;line-height:1.6;&quot;&gt;+ WhoIsTheUserWithTheMostPlaylists(): &lt;/p&gt;&lt;hr size=&quot;1&quot;/&gt;&lt;p style=&quot;margin:0 0 0 4px;line-height:1.6;&quot;&gt;+ executeQuery(PlaylistManager, UserManager): Utilizador&lt;/p&gt;" style="verticalAlign=top;align=left;overflow=fill;fontSize=14;fontFamily=Helvetica;html=1;rounded=0;shadow=0;comic=0;labelBackgroundColor=none;strokeWidth=1;">
      <mxGeometry x="1218" y="4123" width="401" height="96" as="geometry" />
    </mxCell>
    <mxCell id="node19" parent="1" vertex="1" value="&lt;p style=&quot;margin:0px;margin-top:4px;text-align:center;&quot;&gt;&lt;b&gt;WhoIsTheUserWithTheMostPlaylistsTest&lt;/b&gt;&lt;/p&gt;&lt;hr size=&quot;1&quot;/&gt;&lt;p style=&quot;margin:0 0 0 4px;line-height:1.6;&quot;&gt;+ WhoIsTheUserWithTheMostPlaylistsTest(): &lt;/p&gt;&lt;hr size=&quot;1&quot;/&gt;&lt;p style=&quot;margin:0 0 0 4px;line-height:1.6;&quot;&gt;- playlistManager: PlaylistManager&lt;br/&gt;- userManager: UserManager&lt;br/&gt;- musicManager: MusicManager&lt;/p&gt;&lt;hr size=&quot;1&quot;/&gt;&lt;p style=&quot;margin:0 0 0 4px;line-height:1.6;&quot;&gt;~ setUp(): void&lt;br/&gt;~ testNoPlaylistsReturnsNull(): void&lt;br/&gt;~ testUserWithMostPlaylists(): void&lt;br/&gt;~ testTieReturnsAny(): void&lt;/p&gt;" style="verticalAlign=top;align=left;overflow=fill;fontSize=14;fontFamily=Helvetica;html=1;rounded=0;shadow=0;comic=0;labelBackgroundColor=none;strokeWidth=1;">
      <mxGeometry x="2679" y="4013" width="366" height="235" as="geometry" />
    </mxCell>
    <mxCell id="node56" parent="1" vertex="1" value="&lt;p style=&quot;margin:0px;margin-top:4px;text-align:center;&quot;&gt;&lt;b&gt;WhoIsTheUserWithTheMostPoints&lt;/b&gt;&lt;/p&gt;&lt;hr size=&quot;1&quot;/&gt;&lt;p style=&quot;margin:0 0 0 4px;line-height:1.6;&quot;&gt;+ WhoIsTheUserWithTheMostPoints(): &lt;/p&gt;&lt;hr size=&quot;1&quot;/&gt;&lt;p style=&quot;margin:0 0 0 4px;line-height:1.6;&quot;&gt;+ executeQuery(UserManager): Utilizador&lt;/p&gt;" style="verticalAlign=top;align=left;overflow=fill;fontSize=14;fontFamily=Helvetica;html=1;rounded=0;shadow=0;comic=0;labelBackgroundColor=none;strokeWidth=1;">
      <mxGeometry x="1011" y="2594" width="317" height="96" as="geometry" />
    </mxCell>
    <mxCell id="node53" parent="1" vertex="1" value="&lt;p style=&quot;margin:0px;margin-top:4px;text-align:center;&quot;&gt;&lt;b&gt;WhoIsTheUserWithTheMostPointsTest&lt;/b&gt;&lt;/p&gt;&lt;hr size=&quot;1&quot;/&gt;&lt;p style=&quot;margin:0 0 0 4px;line-height:1.6;&quot;&gt;+ WhoIsTheUserWithTheMostPointsTest(): &lt;/p&gt;&lt;hr size=&quot;1&quot;/&gt;&lt;p style=&quot;margin:0 0 0 4px;line-height:1.6;&quot;&gt;- userManager: UserManager&lt;/p&gt;&lt;hr size=&quot;1&quot;/&gt;&lt;p style=&quot;margin:0 0 0 4px;line-height:1.6;&quot;&gt;~ testUserWithMostPoints(): void&lt;br/&gt;~ setUp(): void&lt;br/&gt;~ testTieReturnsFirstEncountered(): void&lt;br/&gt;~ testNoUsersReturnsNull(): void&lt;/p&gt;" style="verticalAlign=top;align=left;overflow=fill;fontSize=14;fontFamily=Helvetica;html=1;rounded=0;shadow=0;comic=0;labelBackgroundColor=none;strokeWidth=1;">
      <mxGeometry x="1195" y="3362" width="351" height="187" as="geometry" />
    </mxCell>
    <mxCell id="node33" parent="1" vertex="1" value="&lt;p style=&quot;margin:0px;margin-top:4px;text-align:center;&quot;&gt;&lt;b&gt;build&lt;/b&gt;&lt;/p&gt;&lt;hr size=&quot;1&quot;/&gt;&lt;p style=&quot;margin:0 0 0 4px;line-height:1.6;&quot;&gt;+ build(): &lt;/p&gt;&lt;hr size=&quot;1&quot;/&gt;&lt;p style=&quot;margin:0 0 0 4px;line-height:1.6;&quot;&gt;+ invokeMethod(String, Object): Object&lt;br/&gt;+ setProperty(String, Object): void&lt;br/&gt;+ run(): Object&lt;br/&gt;+ main(String[]): void&lt;br/&gt;+ getMetaClass(): MetaClass&lt;br/&gt;+ setMetaClass(MetaClass): void&lt;br/&gt;+ getProperty(String): Object&lt;/p&gt;" style="verticalAlign=top;align=left;overflow=fill;fontSize=14;fontFamily=Helvetica;html=1;rounded=0;shadow=0;comic=0;labelBackgroundColor=none;strokeWidth=1;">
      <mxGeometry x="330" y="13" width="279" height="233" as="geometry" />
    </mxCell>
    <mxCell id="node13" parent="1" vertex="1" value="&lt;p style=&quot;margin:0px;margin-top:4px;text-align:center;&quot;&gt;&lt;b&gt;settings&lt;/b&gt;&lt;/p&gt;&lt;hr size=&quot;1&quot;/&gt;&lt;p style=&quot;margin:0 0 0 4px;line-height:1.6;&quot;&gt;+ settings(): &lt;/p&gt;&lt;hr size=&quot;1&quot;/&gt;&lt;p style=&quot;margin:0 0 0 4px;line-height:1.6;&quot;&gt;+ invokeMethod(String, Object): Object&lt;br/&gt;+ setProperty(String, Object): void&lt;br/&gt;+ getMetaClass(): MetaClass&lt;br/&gt;+ main(String[]): void&lt;br/&gt;+ getProperty(String): Object&lt;br/&gt;+ setMetaClass(MetaClass): void&lt;br/&gt;+ run(): Object&lt;/p&gt;" style="verticalAlign=top;align=left;overflow=fill;fontSize=14;fontFamily=Helvetica;html=1;rounded=0;shadow=0;comic=0;labelBackgroundColor=none;strokeWidth=1;">
      <mxGeometry x="1889" y="4372" width="279" height="233" as="geometry" />
    </mxCell>
    <mxCell id="edge5" edge="1" value="" parent="1" source="node14" target="node51" style="html=1;rounded=1;edgeStyle=orthogonalEdgeStyle;dashed=0;startArrow=none;endArrow=block;endSize=12;strokeColor=#000082;exitX=1.000;exitY=0.500;exitDx=0;exitDy=0;entryX=0.500;entryY=1.000;entryDx=0;entryDy=0;">
      <mxGeometry width="50" height="50" relative="1" as="geometry">
        <Array as="points">
          <mxPoint x="2419" y="3592" />
          <mxPoint x="2419" y="3507" />
          <mxPoint x="2750" y="3507" />
        </Array>
      </mxGeometry>
    </mxCell>
    <mxCell id="edge2" edge="1" value="" parent="1" source="node55" target="node17" style="html=1;rounded=1;edgeStyle=orthogonalEdgeStyle;dashed=0;startArrow=none;endArrow=block;endSize=12;strokeColor=#000082;exitX=0.500;exitY=1.000;exitDx=0;exitDy=0;entryX=1.000;entryY=0.884;entryDx=0;entryDy=0;">
      <mxGeometry width="50" height="50" relative="1" as="geometry">
        <Array as="points">
          <mxPoint x="1522" y="4848" />
          <mxPoint x="1217" y="4848" />
          <mxPoint x="1217" y="4878" />
        </Array>
      </mxGeometry>
    </mxCell>
    <mxCell id="edge3" edge="1" value="" parent="1" source="node0" target="node17" style="html=1;rounded=1;edgeStyle=orthogonalEdgeStyle;dashed=0;startArrow=none;endArrow=block;endSize=12;strokeColor=#000082;exitX=0.500;exitY=1.000;exitDx=0;exitDy=0;entryX=1.000;entryY=0.884;entryDx=0;entryDy=0;">
      <mxGeometry width="50" height="50" relative="1" as="geometry">
        <Array as="points">
          <mxPoint x="954" y="4848" />
          <mxPoint x="1217" y="4848" />
          <mxPoint x="1217" y="4878" />
        </Array>
      </mxGeometry>
    </mxCell>
    <mxCell id="edge0" edge="1" value="" parent="1" source="node43" target="node51" style="html=1;rounded=1;edgeStyle=orthogonalEdgeStyle;dashed=0;startArrow=none;endArrow=block;endSize=12;strokeColor=#000082;exitX=0.500;exitY=0.000;exitDx=0;exitDy=0;entryX=0.500;entryY=1.000;entryDx=0;entryDy=0;">
      <mxGeometry width="50" height="50" relative="1" as="geometry">
        <Array as="points">
          <mxPoint x="2636" y="3507" />
          <mxPoint x="2750" y="3507" />
        </Array>
      </mxGeometry>
    </mxCell>
    <mxCell id="edge7" edge="1" value="" parent="1" source="node51" target="node7" style="html=1;rounded=1;edgeStyle=orthogonalEdgeStyle;dashed=1;startArrow=none;endArrow=block;endSize=12;strokeColor=#008200;exitX=0.000;exitY=0.009;exitDx=0;exitDy=0;entryX=1.000;entryY=0.607;entryDx=0;entryDy=0;">
      <mxGeometry width="50" height="50" relative="1" as="geometry">
        <Array as="points" />
      </mxGeometry>
    </mxCell>
    <mxCell id="edge6" edge="1" value="" parent="1" source="node17" target="node45" style="html=1;rounded=1;edgeStyle=orthogonalEdgeStyle;dashed=1;startArrow=none;endArrow=block;endSize=12;strokeColor=#008200;exitX=0.612;exitY=0.000;exitDx=0;exitDy=0;entryX=0.500;entryY=1.000;entryDx=0;entryDy=0;">
      <mxGeometry width="50" height="50" relative="1" as="geometry">
        <Array as="points" />
      </mxGeometry>
    </mxCell>
    <mxCell id="edge4" edge="1" value="" parent="1" source="node38" target="node39" style="html=1;rounded=1;edgeStyle=orthogonalEdgeStyle;dashed=1;startArrow=none;endArrow=block;endSize=12;strokeColor=#008200;exitX=0.000;exitY=0.018;exitDx=0;exitDy=0;entryX=1.000;entryY=0.795;entryDx=0;entryDy=0;">
      <mxGeometry width="50" height="50" relative="1" as="geometry">
        <Array as="points" />
      </mxGeometry>
    </mxCell>
    <mxCell id="edge1" edge="1" value="" parent="1" source="node59" target="node49" style="html=1;rounded=1;edgeStyle=orthogonalEdgeStyle;dashed=1;startArrow=none;endArrow=block;endSize=12;strokeColor=#008200;exitX=0.500;exitY=0.000;exitDx=0;exitDy=0;entryX=1.000;entryY=0.918;entryDx=0;entryDy=0;">
      <mxGeometry width="50" height="50" relative="1" as="geometry">
        <Array as="points">
          <mxPoint x="1092" y="761" />
        </Array>
      </mxGeometry>
    </mxCell>
  </root>
</mxGraphModel>